<svg width="32" height="32" viewBox="0 0 32 32" fill="none" xmlns="http://www.w3.org/2000/svg">
<path d="M11.9997 1.66658H19.9997C27.2397 1.66658 30.333 4.75992 30.333 11.9999V19.9999C30.333 27.2399 27.2397 30.3333 19.9997 30.3333H11.9997C4.75967 30.3333 1.66634 27.2399 1.66634 19.9999V11.9999C1.66634 4.75992 4.75967 1.66658 11.9997 1.66658ZM19.9997 28.3333C26.1463 28.3333 28.333 26.1466 28.333 19.9999V11.9999C28.333 5.85325 26.1463 3.66658 19.9997 3.66658H11.9997C5.85301 3.66658 3.66634 5.85325 3.66634 11.9999V19.9999C3.66634 26.1466 5.85301 28.3333 11.9997 28.3333H19.9997Z" fill="#206FFD"/>
<path d="M14.3201 10.2934C14.5734 10.2934 14.8268 10.3867 15.0268 10.5867L19.7334 15.2934C20.1201 15.68 20.1201 16.32 19.7334 16.7067L15.0268 21.4134C14.6401 21.8 14.0001 21.8 13.6134 21.4134C13.2268 21.0267 13.2268 20.3867 13.6134 20L17.6134 16L13.6134 12C13.2268 11.6134 13.2268 10.9734 13.6134 10.5867C13.8001 10.3867 14.0534 10.2934 14.3201 10.2934Z" fill="#206FFD"/>
</svg>
