<svg width="16" height="16" viewBox="0 0 16 16" fill="none" xmlns="http://www.w3.org/2000/svg">
<path d="M14 3.5H2C1.72667 3.5 1.5 3.27333 1.5 3C1.5 2.72667 1.72667 2.5 2 2.5H14C14.2733 2.5 14.5 2.72667 14.5 3C14.5 3.27333 14.2733 3.5 14 3.5Z" fill="#0A1E43"/>
<path d="M13.9999 6.83325H7.68652C7.41319 6.83325 7.18652 6.60659 7.18652 6.33325C7.18652 6.05992 7.41319 5.83325 7.68652 5.83325H13.9999C14.2732 5.83325 14.4999 6.05992 14.4999 6.33325C14.4999 6.60659 14.2732 6.83325 13.9999 6.83325Z" fill="#0A1E43"/>
<path d="M14 10.1667H2C1.72667 10.1667 1.5 9.94008 1.5 9.66675C1.5 9.39341 1.72667 9.16675 2 9.16675H14C14.2733 9.16675 14.5 9.39341 14.5 9.66675C14.5 9.94008 14.2733 10.1667 14 10.1667Z" fill="#0A1E43"/>
<path d="M13.9999 13.5H7.68652C7.41319 13.5 7.18652 13.2733 7.18652 13C7.18652 12.7267 7.41319 12.5 7.68652 12.5H13.9999C14.2732 12.5 14.4999 12.7267 14.4999 13C14.4999 13.2733 14.2732 13.5 13.9999 13.5Z" fill="#0A1E43"/>
</svg>
