<svg width="16" height="16" viewBox="0 0 16 16" fill="none" xmlns="http://www.w3.org/2000/svg">
<path d="M14 3.5H2C1.72667 3.5 1.5 3.27333 1.5 3C1.5 2.72667 1.72667 2.5 2 2.5H14C14.2733 2.5 14.5 2.72667 14.5 3C14.5 3.27333 14.2733 3.5 14 3.5Z" fill="#0A1E43"/>
<path d="M11.1598 6.83325H4.83984C4.56651 6.83325 4.33984 6.60659 4.33984 6.33325C4.33984 6.05992 4.56651 5.83325 4.83984 5.83325H11.1532C11.4265 5.83325 11.6532 6.05992 11.6532 6.33325C11.6532 6.60659 11.4332 6.83325 11.1598 6.83325Z" fill="#0A1E43"/>
<path d="M14 10.1667H2C1.72667 10.1667 1.5 9.94008 1.5 9.66675C1.5 9.39341 1.72667 9.16675 2 9.16675H14C14.2733 9.16675 14.5 9.39341 14.5 9.66675C14.5 9.94008 14.2733 10.1667 14 10.1667Z" fill="#0A1E43"/>
<path d="M11.1598 13.5H4.83984C4.56651 13.5 4.33984 13.2733 4.33984 13C4.33984 12.7267 4.56651 12.5 4.83984 12.5H11.1532C11.4265 12.5 11.6532 12.7267 11.6532 13C11.6532 13.2733 11.4332 13.5 11.1598 13.5Z" fill="#0A1E43"/>
</svg>
