<svg width="32" height="32" viewBox="0 0 32 32" fill="none" xmlns="http://www.w3.org/2000/svg">
<path d="M16.0003 30.3334H12.0003C4.76033 30.3334 1.66699 27.2401 1.66699 20.0001V12.0001C1.66699 4.76008 4.76033 1.66675 12.0003 1.66675H20.0003C27.2403 1.66675 30.3337 4.76008 30.3337 12.0001V16.0001C30.3337 16.5467 29.8803 17.0001 29.3337 17.0001C28.787 17.0001 28.3337 16.5467 28.3337 16.0001V12.0001C28.3337 5.85341 26.147 3.66675 20.0003 3.66675H12.0003C5.85366 3.66675 3.66699 5.85341 3.66699 12.0001V20.0001C3.66699 26.1467 5.85366 28.3334 12.0003 28.3334H16.0003C16.547 28.3334 17.0003 28.7867 17.0003 29.3334C17.0003 29.8801 16.547 30.3334 16.0003 30.3334Z" fill="#206FFD"/>
<path d="M21.8266 30.3599C21.8133 30.3599 21.8133 30.3599 21.8 30.3599C20.4533 30.3466 19.3333 29.52 18.9333 28.2266L16.4666 20.2933C16.1333 19.1999 16.4133 18.0266 17.2266 17.2399C18.0266 16.4533 19.1866 16.1599 20.2533 16.4933L28.2 18.9599C29.48 19.3599 30.32 20.4799 30.3333 21.8266C30.3466 23.1599 29.5333 24.2933 28.2533 24.72L26.08 25.4533C25.7733 25.5599 25.5333 25.7866 25.44 26.0933L24.6933 28.2799C24.28 29.5466 23.16 30.3599 21.8266 30.3599ZM19.3466 18.3599C18.9866 18.3599 18.7466 18.5599 18.64 18.6533C18.36 18.9333 18.2666 19.3199 18.3866 19.7066L20.8533 27.64C21.0666 28.32 21.6266 28.3466 21.84 28.3599C22.0266 28.3599 22.6 28.3066 22.8133 27.6533L23.56 25.4666C23.8533 24.5733 24.5733 23.8666 25.4666 23.56L27.64 22.8266C28.3066 22.6133 28.3466 22.0266 28.3466 21.8533C28.3466 21.68 28.2933 21.0933 27.6266 20.8799L19.68 18.4133C19.5466 18.3733 19.44 18.3599 19.3466 18.3599Z" fill="#206FFD"/>
</svg>
