<svg width="90" height="90" viewBox="0 0 90 90" fill="none" xmlns="http://www.w3.org/2000/svg">
<rect width="90" height="90" rx="10" fill="#FCF7E3"/>
<path d="M64.7141 28.571V64.7141H28.571V58.143L58.143 28.571H64.7141Z" fill="#FFA001"/>
<path d="M64.7144 28.571V64.7141H46.6433V40.071L58.1432 28.571H64.7144Z" fill="#F87F02"/>
<path d="M58.143 22V58.143H22V22H35.1378L40.0711 23.2578L45.0053 22H58.143Z" fill="#FFDA2D"/>
<path d="M58.143 22V58.143H40.071V23.2578L45.0052 22H58.143Z" fill="#FCBE00"/>
<path d="M28.1866 49.8389H37.0683V52.5342H28.1866V49.8389Z" fill="#FFA001"/>
<path d="M28.1866 43.6523H32.6277V46.3476H28.1866V43.6523Z" fill="#FFA001"/>
<path d="M45.0053 22V34.7155L40.0711 31.8675L35.1378 34.7155V22H45.0053Z" fill="#FFA001"/>
<path d="M45.0052 22V34.7155L40.071 31.8675V22H45.0052Z" fill="#F87F02"/>
<path d="M67.9998 58.1432C67.9998 63.5869 63.5867 68 58.1431 68C52.6986 68 48.2855 63.5869 48.2855 58.1432C48.2855 52.6987 52.6986 48.2856 58.1431 48.2856C63.5867 48.2856 67.9998 52.6987 67.9998 58.1432Z" fill="#FE4A4A"/>
<path d="M68 58.1432C68 63.5869 63.5869 68 58.1433 68V48.2856C63.5869 48.2856 68 52.6987 68 58.1432Z" fill="#E80B6A"/>
<path d="M60.0488 58.1436L62.2364 60.3303L60.33 62.2368L58.1432 60.0491L55.9564 62.2368L54.0499 60.3303L56.2376 58.1436L54.0499 55.9568L55.9564 54.0503L58.1432 56.238L60.33 54.0503L62.2364 55.9568L60.0488 58.1436Z" fill="#F3FDFF"/>
<path d="M60.0489 58.1436L62.2366 60.3303L60.3301 62.2368L58.1433 60.0491V56.238L60.3301 54.0503L62.2366 55.9568L60.0489 58.1436Z" fill="#D7F3F7"/>
</svg>
