<svg width="90" height="90" viewBox="0 0 90 90" fill="none" xmlns="http://www.w3.org/2000/svg">
<rect width="90" height="90" rx="10" fill="#FCF7E3"/>
<path d="M24.875 23.4375H56.5C58.0877 23.4375 59.375 24.7248 59.375 26.3125V65.125C59.375 66.7127 58.0877 68 56.5 68H24.875C23.2873 68 22 66.7127 22 65.125V26.3125C22 24.7248 23.2873 23.4375 24.875 23.4375Z" fill="#ECCE93"/>
<path d="M24.875 55.6577V26.3125H56.5V65.125H34.3423L24.875 55.6577Z" fill="#EFEFEF"/>
<path d="M34.3423 55.6577V65.125L24.875 55.6577H34.3423Z" fill="#E76E54"/>
<path d="M33.5 27.75V22H47.875V27.75C47.875 29.3377 46.5877 30.625 45 30.625H36.375C34.7873 30.625 33.5 29.3377 33.5 27.75Z" fill="#E76E54"/>
<path d="M68 55.0625C68 62.2075 62.2075 68 55.0625 68C47.9175 68 42.125 62.2075 42.125 55.0625C42.125 47.9175 47.9175 42.125 55.0625 42.125C62.2075 42.125 68 47.9175 68 55.0625Z" fill="#83E470"/>
<path d="M52.0983 60.6012L49.3125 57.814C48.7513 57.2524 48.7513 56.3424 49.3125 55.7812C49.8737 55.2201 50.7837 55.2201 51.3452 55.7812L52.2766 56.7113L58.7871 51.2848C59.3971 50.776 60.3043 50.8584 60.8125 51.4687C61.3214 52.0787 61.2389 52.9859 60.6286 53.4941L52.0983 60.6012Z" fill="white"/>
<path d="M37.8125 33.5H49.3125C50.1064 33.5 50.75 34.1436 50.75 34.9375C50.75 35.7314 50.1064 36.375 49.3125 36.375H37.8125C37.0186 36.375 36.375 35.7314 36.375 34.9375C36.375 34.1436 37.0186 33.5 37.8125 33.5Z" fill="#77959E"/>
<path d="M30.625 33.5H33.5V36.375H30.625V33.5Z" fill="#77959E"/>
<path d="M30.625 39.25H33.5V42.125H30.625V39.25Z" fill="#77959E"/>
<path d="M30.625 45H33.5V47.875H30.625V45Z" fill="#77959E"/>
<path d="M30.625 50.75H33.5V53.625H30.625V50.75Z" fill="#77959E"/>
<path d="M37.8125 39.25H46.4375C47.2314 39.25 47.875 39.8936 47.875 40.6875C47.875 41.4814 47.2314 42.125 46.4375 42.125H37.8125C37.0186 42.125 36.375 41.4814 36.375 40.6875C36.375 39.8936 37.0186 39.25 37.8125 39.25Z" fill="#77959E"/>
<path d="M37.8125 45H40.6875C41.4814 45 42.125 45.6436 42.125 46.4375C42.125 47.2314 41.4814 47.875 40.6875 47.875H37.8125C37.0186 47.875 36.375 47.2314 36.375 46.4375C36.375 45.6436 37.0186 45 37.8125 45Z" fill="#77959E"/>
</svg>
