<svg width="30" height="29" viewBox="0 0 30 29" fill="none" xmlns="http://www.w3.org/2000/svg">
<path d="M20.8848 18.8182H28.9997V13.8037C28.9997 12.9318 28.5428 12.1237 27.7944 11.6757L24.1773 9.50439" stroke="#206FFD" stroke-width="2" stroke-linecap="round" stroke-linejoin="round"/>
<path d="M16.5889 3.80382C17.2443 2.16073 18.8505 1 20.7278 1C23.188 1 25.1823 2.99436 25.1823 5.45454V6.72727C25.1823 9.18745 23.188 11.1818 20.7278 11.1818C20.0303 11.1818 19.371 11.0214 18.7843 10.7364" stroke="#206FFD" stroke-width="2" stroke-linecap="round" stroke-linejoin="round"/>
<path d="M8.46199 16.1226L2.66854 19.5984C1.63254 20.2195 1 21.3382 1 22.546V27.7273H23.9091V22.546C23.9091 21.3382 23.2752 20.2195 22.2405 19.5984L16.4509 16.1251" stroke="#206FFD" stroke-width="2" stroke-linecap="round" stroke-linejoin="round"/>
<path fill-rule="evenodd" clip-rule="evenodd" d="M12.4545 17.5454V17.5454C8.94045 17.5454 6.09082 14.6958 6.09082 11.1818V8.63633C6.09082 5.12234 8.94045 2.27271 12.4545 2.27271C15.9684 2.27271 18.8181 5.12234 18.8181 8.63633V11.1818C18.8181 14.6958 15.9684 17.5454 12.4545 17.5454V17.5454Z" stroke="#206FFD" stroke-width="2" stroke-linecap="round" stroke-linejoin="round"/>
</svg>
