<svg width="90" height="90" viewBox="0 0 90 90" fill="none" xmlns="http://www.w3.org/2000/svg">
<rect width="90" height="90" rx="10" fill="#FCF7E3"/>
<path d="M58.5734 22H30.4684C25.7913 22 22 25.7915 22 30.4684V48.9018C22 53.5788 25.7915 57.3702 30.4684 57.3702H34.5018C34.6937 57.3702 34.8493 57.5257 34.8493 57.7176V66.8104C34.8493 67.8855 36.1643 68.4068 36.9008 67.6235L46.4411 57.4796C46.5068 57.4097 46.5984 57.3702 46.6943 57.3702H58.5734C63.2504 57.3702 67.0418 53.5787 67.0418 48.9018V30.4684C67.0418 25.7915 63.2503 22 58.5734 22Z" fill="#EC5569"/>
<path d="M38.412 54.21C38.412 54.008 38.2614 53.8442 38.0756 53.8442H34.1709C29.6431 53.8442 25.9726 49.8516 25.9726 44.9266V25.5152C25.9726 24.6818 26.0781 23.8753 26.2746 23.1101C23.7211 24.5686 22 27.3176 22 30.4687V48.9021C22 53.579 25.7915 57.3705 30.4684 57.3705H34.5018C34.6937 57.3705 34.8493 57.5261 34.8493 57.7179V66.8107C34.8493 67.8858 36.1643 68.407 36.9008 67.6238L38.4119 66.0169V54.21H38.412Z" fill="#E63950"/>
<path d="M54.0362 32.9902C51.8862 30.8402 48.4002 30.8402 46.2501 32.9902L45.0356 34.2047C44.746 34.4943 44.2764 34.4943 43.9868 34.2047L42.7917 33.0096C40.6417 30.8596 37.1557 30.8596 35.0056 33.0096C32.8556 35.1597 32.8556 38.6456 35.0056 40.7958L43.9875 49.7777C44.2771 50.0673 44.7467 50.0673 45.0363 49.7777L54.0361 40.7763C56.1863 38.6262 56.1863 35.1404 54.0362 32.9902Z" fill="#EC5569"/>
<path d="M54.0362 32.9902C51.8862 30.8402 48.4002 30.8402 46.2501 32.9902L45.0356 34.2047C44.746 34.4943 44.2764 34.4943 43.9868 34.2047L42.7917 33.0096C40.6417 30.8596 37.1557 30.8596 35.0056 33.0096C32.8556 35.1597 32.8556 38.6456 35.0056 40.7958L43.9875 49.7777C44.2771 50.0673 44.7467 50.0673 45.0363 49.7777L54.0361 40.7763C56.1863 38.6262 56.1863 35.1404 54.0362 32.9902Z" fill="#FFF5F5"/>
<path d="M37.8857 40.796C35.7356 38.646 35.7356 35.16 37.8857 33.0099C38.5909 32.3046 39.4403 31.8322 40.3387 31.5897C38.4981 31.0927 36.4504 31.5651 35.0057 33.0099C32.8557 35.16 32.8557 38.6459 35.0057 40.796L43.9877 49.778C44.2772 50.0675 44.7468 50.0675 45.0364 49.778L45.9519 48.8623L37.8857 40.796Z" fill="#DCE6EB"/>
</svg>
