<svg width="30" height="25" viewBox="0 0 30 25" fill="none" xmlns="http://www.w3.org/2000/svg">
<path fill-rule="evenodd" clip-rule="evenodd" d="M9.27237 13.7274V13.7274C8.21855 13.7274 7.36328 12.8721 7.36328 11.8183V10.5456C7.36328 9.49175 8.21855 8.63647 9.27237 8.63647C10.3262 8.63647 11.1815 9.49175 11.1815 10.5456V11.8183C11.1815 12.8721 10.3262 13.7274 9.27237 13.7274V13.7274Z" stroke="#206FFD" stroke-width="2" stroke-linecap="round" stroke-linejoin="round"/>
<path d="M18.8184 11.1819H23.9093" stroke="#206FFD" stroke-width="2" stroke-linecap="round" stroke-linejoin="round"/>
<path d="M18.8184 16.2727H23.9093" stroke="#206FFD" stroke-width="2" stroke-linecap="round" stroke-linejoin="round"/>
<path fill-rule="evenodd" clip-rule="evenodd" d="M13.7275 18.8182H4.81836V18.1818C4.81836 15.7217 6.81272 13.7273 9.2729 13.7273C11.7331 13.7273 13.7275 15.7217 13.7275 18.1818V18.8182V18.8182Z" stroke="#206FFD" stroke-width="2" stroke-linecap="round" stroke-linejoin="round"/>
<path fill-rule="evenodd" clip-rule="evenodd" d="M23.9091 1C23.9091 2.40636 22.77 3.54545 21.3636 3.54545C19.9573 3.54545 18.8182 2.40636 18.8182 1H11.1818C11.1818 2.40636 10.0427 3.54545 8.63636 3.54545C7.23 3.54545 6.09091 2.40636 6.09091 1H1V23.9091H29V1H23.9091V1Z" stroke="#206FFD" stroke-width="2" stroke-linecap="round" stroke-linejoin="round"/>
</svg>
