<svg width="32" height="32" viewBox="0 0 32 32" fill="none" xmlns="http://www.w3.org/2000/svg">
<path d="M28 30.3333H4C3.45333 30.3333 3 29.8799 3 29.3333C3 28.7866 3.45333 28.3333 4 28.3333H28C28.5467 28.3333 29 28.7866 29 29.3333C29 29.8799 28.5467 30.3333 28 30.3333Z" fill="#206FFD"/>
<path d="M28 3.66675H4C3.45333 3.66675 3 3.21341 3 2.66675C3 2.12008 3.45333 1.66675 4 1.66675H28C28.5467 1.66675 29 2.12008 29 2.66675C29 3.21341 28.5467 3.66675 28 3.66675Z" fill="#206FFD"/>
<path d="M16 25C15.4533 25 15 24.5467 15 24V8C15 7.45333 15.4533 7 16 7C16.5467 7 17 7.45333 17 8V24C17 24.5467 16.5467 25 16 25Z" fill="#206FFD"/>
<path d="M19.7738 11.2932C19.5205 11.2932 19.2671 11.1999 19.0671 10.9999L16.0005 7.9332L12.9338 10.9999C12.5471 11.3865 11.9071 11.3865 11.5205 10.9999C11.1338 10.6132 11.1338 9.9732 11.5205 9.58654L15.2938 5.8132C15.6671 5.43987 16.3338 5.43987 16.7071 5.8132L20.4805 9.58654C20.8671 9.9732 20.8671 10.6132 20.4805 10.9999C20.2805 11.1999 20.0271 11.2932 19.7738 11.2932Z" fill="#206FFD"/>
<path d="M16.0005 25.9599C15.7338 25.9599 15.4805 25.8533 15.2938 25.6666L11.5205 21.8933C11.1338 21.5066 11.1338 20.8666 11.5205 20.4799C11.9071 20.0933 12.5471 20.0933 12.9338 20.4799L16.0005 23.5466L19.0671 20.4799C19.4538 20.0933 20.0938 20.0933 20.4805 20.4799C20.8671 20.8666 20.8671 21.5066 20.4805 21.8933L16.7071 25.6666C16.5205 25.8533 16.2671 25.9599 16.0005 25.9599Z" fill="#206FFD"/>
</svg>
