<svg width="14" height="14" viewBox="0 0 14 14" fill="none" xmlns="http://www.w3.org/2000/svg">
<path d="M12.75 9.5C12.34 9.5 12 9.16 12 8.75V7.5H1.5V8.75C1.5 9.16 1.16 9.5 0.75 9.5C0.34 9.5 0 9.16 0 8.75V4.75C0 4.34 0.34 4 0.75 4C1.16 4 1.5 4.34 1.5 4.75V6H12V4.75C12 4.34 12.34 4 12.75 4C13.16 4 13.5 4.34 13.5 4.75V8.75C13.5 9.16 13.16 9.5 12.75 9.5Z" fill="white"/>
<path d="M8.75 13.5H4.75C4.34 13.5 4 13.16 4 12.75C4 12.34 4.34 12 4.75 12H6V1.5H4.75C4.34 1.5 4 1.16 4 0.75C4 0.34 4.34 0 4.75 0H8.75C9.16 0 9.5 0.34 9.5 0.75C9.5 1.16 9.16 1.5 8.75 1.5H7.5V12H8.75C9.16 12 9.5 12.34 9.5 12.75C9.5 13.16 9.16 13.5 8.75 13.5Z" fill="white"/>
</svg>
