<svg width="22" height="22" viewBox="0 0 22 22" fill="none" xmlns="http://www.w3.org/2000/svg">
<path d="M9.94568 3.10864H2.98793C2.4607 3.10864 1.95506 3.31808 1.58225 3.69089C1.20944 4.0637 1 4.56934 1 5.09657V19.0121C1 19.5393 1.20944 20.0449 1.58225 20.4178C1.95506 20.7906 2.4607 21 2.98793 21H16.9034C17.4307 21 17.9363 20.7906 18.3091 20.4178C18.6819 20.0449 18.8914 19.5393 18.8914 19.0121V12.0543" stroke="#0A1E43" stroke-opacity="0.75" stroke-width="1.5" stroke-linecap="round" stroke-linejoin="round"/>
<path d="M17.4004 1.61757C17.7958 1.22215 18.3321 1 18.8914 1C19.4506 1 19.9869 1.22215 20.3823 1.61757C20.7777 2.01299 20.9999 2.5493 20.9999 3.10852C20.9999 3.66773 20.7777 4.20404 20.3823 4.59946L10.9396 14.0421L6.96378 15.0361L7.95774 11.0602L17.4004 1.61757Z" stroke="#0A1E43" stroke-opacity="0.75" stroke-width="1.5" stroke-linecap="round" stroke-linejoin="round"/>
</svg>
