<svg width="90" height="90" viewBox="0 0 90 90" fill="none" xmlns="http://www.w3.org/2000/svg">
<rect width="90" height="90" rx="10" fill="#FCF7E3"/>
<path d="M45 22C32.359 22 22 32.359 22 45C22 57.641 32.359 68 45 68C57.641 68 68 57.641 68 45C68 32.359 57.641 22 45 22ZM27.4805 45C27.4805 35.3507 35.3507 27.4805 45 27.4805C48.6386 27.4805 52.1427 28.6124 55.1344 30.7417L45 40.8761L30.7419 55.1344C28.6124 52.1425 27.4805 48.6386 27.4805 45ZM45 62.5195C41.3614 62.5195 37.8573 61.3874 34.8656 59.2581L59.2582 34.8655C61.3876 37.8573 62.5195 41.3612 62.5195 45C62.5195 54.6491 54.6493 62.5195 45 62.5195Z" fill="#FF3636"/>
<path d="M68 45C68 57.641 57.641 68 45 68V62.5195C54.6493 62.5195 62.5195 54.6491 62.5195 45C62.5195 41.3612 61.3876 37.8573 59.2581 34.8656L45 49.1237V40.8761L55.1344 30.7417C52.1427 28.6124 48.6386 27.4805 45 27.4805V22C57.641 22 68 32.359 68 45Z" fill="#F40000"/>
</svg>
