<svg width="32" height="32" viewBox="0 0 32 32" fill="none" xmlns="http://www.w3.org/2000/svg">
<path d="M9.33366 14.3334H6.66699C3.44033 14.3334 1.66699 12.5601 1.66699 9.33341V6.66675C1.66699 3.44008 3.44033 1.66675 6.66699 1.66675H9.33366C12.5603 1.66675 14.3337 3.44008 14.3337 6.66675V9.33341C14.3337 12.5601 12.5603 14.3334 9.33366 14.3334ZM6.66699 3.66675C4.56033 3.66675 3.66699 4.56008 3.66699 6.66675V9.33341C3.66699 11.4401 4.56033 12.3334 6.66699 12.3334H9.33366C11.4403 12.3334 12.3337 11.4401 12.3337 9.33341V6.66675C12.3337 4.56008 11.4403 3.66675 9.33366 3.66675H6.66699Z" fill="#206FFD"/>
<path d="M25.3337 14.3334H22.667C19.4403 14.3334 17.667 12.5601 17.667 9.33341V6.66675C17.667 3.44008 19.4403 1.66675 22.667 1.66675H25.3337C28.5603 1.66675 30.3337 3.44008 30.3337 6.66675V9.33341C30.3337 12.5601 28.5603 14.3334 25.3337 14.3334ZM22.667 3.66675C20.5603 3.66675 19.667 4.56008 19.667 6.66675V9.33341C19.667 11.4401 20.5603 12.3334 22.667 12.3334H25.3337C27.4403 12.3334 28.3337 11.4401 28.3337 9.33341V6.66675C28.3337 4.56008 27.4403 3.66675 25.3337 3.66675H22.667Z" fill="#206FFD"/>
<path d="M25.3337 30.3334H22.667C19.4403 30.3334 17.667 28.5601 17.667 25.3334V22.6667C17.667 19.4401 19.4403 17.6667 22.667 17.6667H25.3337C28.5603 17.6667 30.3337 19.4401 30.3337 22.6667V25.3334C30.3337 28.5601 28.5603 30.3334 25.3337 30.3334ZM22.667 19.6667C20.5603 19.6667 19.667 20.5601 19.667 22.6667V25.3334C19.667 27.4401 20.5603 28.3334 22.667 28.3334H25.3337C27.4403 28.3334 28.3337 27.4401 28.3337 25.3334V22.6667C28.3337 20.5601 27.4403 19.6667 25.3337 19.6667H22.667Z" fill="#206FFD"/>
<path d="M9.33366 30.3334H6.66699C3.44033 30.3334 1.66699 28.5601 1.66699 25.3334V22.6667C1.66699 19.4401 3.44033 17.6667 6.66699 17.6667H9.33366C12.5603 17.6667 14.3337 19.4401 14.3337 22.6667V25.3334C14.3337 28.5601 12.5603 30.3334 9.33366 30.3334ZM6.66699 19.6667C4.56033 19.6667 3.66699 20.5601 3.66699 22.6667V25.3334C3.66699 27.4401 4.56033 28.3334 6.66699 28.3334H9.33366C11.4403 28.3334 12.3337 27.4401 12.3337 25.3334V22.6667C12.3337 20.5601 11.4403 19.6667 9.33366 19.6667H6.66699Z" fill="#206FFD"/>
</svg>
