<svg width="32" height="32" viewBox="0 0 32 32" fill="none" xmlns="http://www.w3.org/2000/svg">
<path d="M12.6399 27.5867C11.9733 27.5867 11.5066 27.36 11.2266 27.1467C10.6933 26.76 9.8666 25.76 10.3866 23.52L11.1466 20.24C11.2132 19.96 11.0666 19.4533 10.8666 19.24L8.21326 16.5867C6.81326 15.1867 6.93325 13.9733 7.11992 13.3733C7.30658 12.7733 7.91991 11.72 9.86658 11.3867L13.2666 10.8267C13.5199 10.7867 13.9333 10.48 14.0399 10.2533L15.9199 6.49333C16.8266 4.67999 18.0266 4.41333 18.6666 4.41333C19.3066 4.41333 20.5066 4.67999 21.4133 6.49333L23.2933 10.2533C23.4133 10.48 23.8132 10.7867 24.0666 10.8267L27.4666 11.3867C29.4133 11.7067 30.0266 12.7733 30.2133 13.3733C30.3999 13.9733 30.5199 15.1867 29.1199 16.5867L26.4666 19.24C26.2666 19.44 26.1199 19.96 26.1866 20.24L26.9466 23.52C27.4666 25.7733 26.6399 26.76 26.1066 27.1467C25.5732 27.5333 24.3866 28.0267 22.3866 26.84L19.1999 24.9467C18.9332 24.7867 18.3732 24.7867 18.1066 24.9467L14.9199 26.84C13.9999 27.4 13.2266 27.5867 12.6399 27.5867ZM18.6666 6.41333C18.4533 6.41333 18.0666 6.66666 17.7066 7.38666L15.8266 11.1467C15.4266 11.96 14.4799 12.6533 13.5866 12.8L10.1866 13.36C9.42661 13.4933 9.07993 13.7733 9.01327 13.9867C8.9466 14.2 9.06658 14.6267 9.61324 15.1733L12.2666 17.8267C12.9466 18.5067 13.3066 19.7467 13.0933 20.68L12.3333 23.96C12.1066 24.9067 12.2532 25.4133 12.3999 25.5333C12.5466 25.64 13.0799 25.6267 13.9066 25.12L17.1066 23.2267C17.9999 22.6933 19.3466 22.6933 20.2266 23.2267L23.4133 25.12C24.2533 25.6133 24.7866 25.64 24.9333 25.5333C25.0799 25.4267 25.2266 24.92 24.9999 23.96L24.2399 20.68C24.0266 19.7333 24.3732 18.5067 25.0666 17.8267L27.7199 15.1733C28.2666 14.6267 28.3866 14.1867 28.3199 13.9867C28.2532 13.7867 27.9066 13.4933 27.1466 13.36L23.7466 12.8C22.8533 12.6533 21.9066 11.96 21.5066 11.1467L19.6266 7.38666C19.2666 6.66666 18.8799 6.41333 18.6666 6.41333Z" fill="#206FFD"/>
<path d="M10.667 7.66675H2.66699C2.12033 7.66675 1.66699 7.21341 1.66699 6.66675C1.66699 6.12008 2.12033 5.66675 2.66699 5.66675H10.667C11.2137 5.66675 11.667 6.12008 11.667 6.66675C11.667 7.21341 11.2137 7.66675 10.667 7.66675Z" fill="#206FFD"/>
<path d="M6.66699 26.3333H2.66699C2.12033 26.3333 1.66699 25.8799 1.66699 25.3333C1.66699 24.7866 2.12033 24.3333 2.66699 24.3333H6.66699C7.21366 24.3333 7.66699 24.7866 7.66699 25.3333C7.66699 25.8799 7.21366 26.3333 6.66699 26.3333Z" fill="#206FFD"/>
<path d="M4.00033 17H2.66699C2.12033 17 1.66699 16.5467 1.66699 16C1.66699 15.4533 2.12033 15 2.66699 15H4.00033C4.54699 15 5.00033 15.4533 5.00033 16C5.00033 16.5467 4.54699 17 4.00033 17Z" fill="#206FFD"/>
</svg>
