<svg width="20" height="20" viewBox="0 0 20 20" fill="none" xmlns="http://www.w3.org/2000/svg">
<path opacity="0.5" d="M1.66667 8.33333H6.66667C7.10869 8.33333 7.53262 8.15774 7.84518 7.84518C8.15774 7.53262 8.33333 7.10869 8.33333 6.66667V1.66667C8.33333 1.22464 8.15774 0.800716 7.84518 0.488155C7.53262 0.175595 7.10869 0 6.66667 0H1.66667C1.22464 0 0.800716 0.175595 0.488155 0.488155C0.175595 0.800716 0 1.22464 0 1.66667V6.66667C0 7.10869 0.175595 7.53262 0.488155 7.84518C0.800716 8.15774 1.22464 8.33333 1.66667 8.33333ZM13.3333 8.33333H18.3333C18.7754 8.33333 19.1993 8.15774 19.5118 7.84518C19.8244 7.53262 20 7.10869 20 6.66667V1.66667C20 1.22464 19.8244 0.800716 19.5118 0.488155C19.1993 0.175595 18.7754 0 18.3333 0H13.3333C12.8913 0 12.4674 0.175595 12.1548 0.488155C11.8423 0.800716 11.6667 1.22464 11.6667 1.66667V6.66667C11.6667 7.10869 11.8423 7.53262 12.1548 7.84518C12.4674 8.15774 12.8913 8.33333 13.3333 8.33333ZM0 18.3333C0 18.7754 0.175595 19.1993 0.488155 19.5118C0.800716 19.8244 1.22464 20 1.66667 20H6.66667C7.10869 20 7.53262 19.8244 7.84518 19.5118C8.15774 19.1993 8.33333 18.7754 8.33333 18.3333V13.3333C8.33333 12.8913 8.15774 12.4674 7.84518 12.1548C7.53262 11.8423 7.10869 11.6667 6.66667 11.6667H1.66667C1.22464 11.6667 0.800716 11.8423 0.488155 12.1548C0.175595 12.4674 0 12.8913 0 13.3333V18.3333ZM11.6667 18.3333C11.6667 18.7754 11.8423 19.1993 12.1548 19.5118C12.4674 19.8244 12.8913 20 13.3333 20H18.3333C18.7754 20 19.1993 19.8244 19.5118 19.5118C19.8244 19.1993 20 18.7754 20 18.3333V13.3333C20 12.8913 19.8244 12.4674 19.5118 12.1548C19.1993 11.8423 18.7754 11.6667 18.3333 11.6667H13.3333C12.8913 11.6667 12.4674 11.8423 12.1548 12.1548C11.8423 12.4674 11.6667 12.8913 11.6667 13.3333V18.3333Z" fill="#455A64"/>
</svg>
