<svg width="54" height="53" viewBox="0 0 54 53" fill="none" xmlns="http://www.w3.org/2000/svg">
<g filter="url(#filter0_d_33_802)">
<path d="M21.6738 7.91033C24.8434 5.58334 29.1566 5.58334 32.3262 7.91033L33.1176 8.49137C34.0125 9.14833 35.0211 9.63407 36.0927 9.92408L37.0404 10.1806C40.8359 11.2078 43.5252 14.58 43.6821 18.509L43.7212 19.49C43.7655 20.5992 44.0147 21.6907 44.456 22.7093L44.8464 23.6101C46.4097 27.218 45.4499 31.4232 42.476 33.9955L41.7334 34.6378C40.8938 35.364 40.1958 36.2393 39.6746 37.2194L39.2137 38.0863C37.3676 41.5581 33.4815 43.4295 29.6162 42.7082L28.651 42.5281C27.5598 42.3245 26.4402 42.3245 25.349 42.5281L24.3838 42.7082C20.5185 43.4295 16.6324 41.5581 14.7863 38.0863L14.3254 37.2194C13.8042 36.2393 13.1062 35.364 12.2666 34.6378L11.524 33.9955C8.55005 31.4232 7.59026 27.218 9.15361 23.6101L9.54397 22.7093C9.98534 21.6907 10.2345 20.5992 10.2787 19.49L10.3179 18.509C10.4748 14.58 13.1641 11.2078 16.9596 10.1806L17.9073 9.92408C18.9789 9.63407 19.9875 9.14833 20.8824 8.49137L21.6738 7.91033Z" fill="url(#paint0_linear_33_802)"/>
</g>
<path opacity="0.4" d="M30.4913 16.6663H23.5079C20.4746 16.6663 18.6663 18.4746 18.6663 21.5079V28.4829C18.6663 31.5246 20.4746 33.3329 23.5079 33.3329H30.4829C33.5163 33.3329 35.3246 31.5246 35.3246 28.4913V21.5079C35.3329 18.4746 33.5246 16.6663 30.4913 16.6663Z" fill="white"/>
<path d="M34.7496 25.1917H31.8496C31.0329 25.1917 30.3079 25.6417 29.9413 26.375L29.2413 27.7583C29.0746 28.0917 28.7413 28.3 28.3746 28.3H25.6413C25.3829 28.3 25.0163 28.2417 24.7746 27.7583L24.0746 26.3833C23.7079 25.6583 22.9746 25.2 22.1663 25.2H19.2496C18.9246 25.2 18.6663 25.4583 18.6663 25.7833V28.5C18.6663 31.525 20.4829 33.3333 23.5163 33.3333H30.4996C33.3579 33.3333 35.1163 31.7667 35.3329 28.9833V25.775C35.3329 25.4583 35.0746 25.1917 34.7496 25.1917Z" fill="white"/>
<path d="M28.2918 21.4999H25.7085C25.3835 21.4999 25.1251 21.2416 25.1251 20.9166C25.1251 20.5916 25.3835 20.3333 25.7085 20.3333H28.2918C28.6168 20.3333 28.8751 20.5916 28.8751 20.9166C28.8751 21.2416 28.6085 21.4999 28.2918 21.4999Z" fill="white"/>
<path d="M28.9413 23.8247H25.0579C24.7329 23.8247 24.4746 23.5664 24.4746 23.2414C24.4746 22.9164 24.7329 22.6581 25.0579 22.6581H28.9329C29.2579 22.6581 29.5163 22.9164 29.5163 23.2414C29.5163 23.5664 29.2579 23.8247 28.9413 23.8247Z" fill="white"/>
<defs>
<filter id="filter0_d_33_802" x="0.411255" y="0.165039" width="53.1775" height="52.6964" filterUnits="userSpaceOnUse" color-interpolation-filters="sRGB">
<feFlood flood-opacity="0" result="BackgroundImageFix"/>
<feColorMatrix in="SourceAlpha" type="matrix" values="0 0 0 0 0 0 0 0 0 0 0 0 0 0 0 0 0 0 127 0" result="hardAlpha"/>
<feOffset dy="2"/>
<feGaussianBlur stdDeviation="4"/>
<feComposite in2="hardAlpha" operator="out"/>
<feColorMatrix type="matrix" values="0 0 0 0 0.0392157 0 0 0 0 0.117647 0 0 0 0 0.262745 0 0 0 0.16 0"/>
<feBlend mode="normal" in2="BackgroundImageFix" result="effect1_dropShadow_33_802"/>
<feBlend mode="normal" in="SourceGraphic" in2="effect1_dropShadow_33_802" result="shape"/>
</filter>
<linearGradient id="paint0_linear_33_802" x1="27" y1="4" x2="27" y2="46" gradientUnits="userSpaceOnUse">
<stop stop-color="#20ADFD"/>
<stop offset="1" stop-color="#206FFD"/>
</linearGradient>
</defs>
</svg>
