<svg width="90" height="90" viewBox="0 0 90 90" fill="none" xmlns="http://www.w3.org/2000/svg">
<rect width="90" height="90" rx="10" fill="#FCF7E3"/>
<path d="M45 68C57.7025 68 68 57.7025 68 45C68 32.2975 57.7025 22 45 22C32.2975 22 22 32.2975 22 45C22 57.7025 32.2975 68 45 68Z" fill="#FFD400"/>
<path d="M68.0002 44.9998C68.0002 44.091 67.9457 43.195 67.8432 42.3137L56.266 30.7364L54.5059 33.1654L49.5075 28.167L49.1173 32.2828L45.0014 28.167L45.0491 32.721L40.4951 28.167L41.041 33.2199L35.9881 28.167L33.7345 61.8324L39.15 67.2479C41.018 67.7379 42.9784 67.9998 45.0002 67.9998C57.7027 67.9998 68.0002 57.7023 68.0002 44.9998Z" fill="#FFB000"/>
<path d="M33.7345 30.7363L35.988 28.167L38.2417 30.7363L40.495 28.167L42.7482 30.7363L45.0014 28.167L47.2545 30.7363L49.5075 28.167L51.7603 30.7363L54.013 28.167L56.2659 30.7363V61.8323L54.013 59.263L51.7603 61.8323L49.5075 59.263L47.2545 61.8323L45.0014 59.263L42.7482 61.8323L40.495 59.263L38.2417 61.8323L35.988 59.263L33.7345 61.8323V30.7363Z" fill="white"/>
<path d="M45.001 59.263L47.2542 61.8323L49.5071 59.263L51.7599 61.8323L54.0126 59.263L56.2655 61.8323V30.7363L54.0126 28.167L51.7599 30.7363L49.5071 28.167L47.2542 30.7363L45.001 28.167V59.263Z" fill="#F2F6FC"/>
<path d="M49.0849 52.7394C49.0849 50.7953 47.5032 49.2137 45.5592 49.2137H44.4414C44.056 49.2137 43.7425 48.9001 43.7425 48.5148C43.7425 48.1294 44.056 47.8159 44.4414 47.8159H48.6138V44.9889H46.4137V43.7639H43.5868V45.0941C42.0543 45.4771 40.9155 46.8651 40.9155 48.5146C40.9155 50.4587 42.4972 52.0403 44.4413 52.0403H45.5591C45.9444 52.0403 46.258 52.3539 46.258 52.7392C46.258 53.1246 45.9444 53.4381 45.5591 53.4381H41.3868V56.265H43.5869V57.4901H46.4138V56.1598C47.9462 55.7768 49.0849 54.3888 49.0849 52.7394Z" fill="#00C8C8"/>
<path d="M48.6135 47.816V44.9892H46.4134V43.7642H45V47.816H48.6135Z" fill="#1CADB5"/>
<path d="M45.5587 49.2134H45.001V52.0403H45.5587C45.9441 52.0403 46.2576 52.3539 46.2576 52.7392C46.2576 53.1245 45.9441 53.4381 45.5587 53.4381H45.001V57.49H46.4132V56.1597C47.9457 55.7767 49.0845 54.3887 49.0845 52.7392C49.0845 50.795 47.5029 49.2134 45.5587 49.2134Z" fill="#1CADB5"/>
<path d="M53.4145 34.4287H36.5841V36.8246H53.4145V34.4287Z" fill="#CDD2E1"/>
<path d="M53.4146 34.4287H45.0007V36.8246H53.4146V34.4287Z" fill="#BEC3D2"/>
<path d="M53.4145 38.8604H36.5841V41.2562H53.4145V38.8604Z" fill="#CDD2E1"/>
<path d="M53.4157 38.8604H45V41.2562H53.4157V38.8604Z" fill="#BEC3D2"/>
</svg>
