<svg width="227" height="53" viewBox="0 0 227 53" fill="none" xmlns="http://www.w3.org/2000/svg">
<path d="M68.0195 25H59.7969V10.7227H68.0195V13.2031H62.8242V16.3379H67.6582V18.8184H62.8242V22.5H68.0195V25ZM80.1484 25H77.1699V18.623C77.1699 17.8353 77.0527 17.2461 76.8184 16.8555C76.584 16.4583 76.2161 16.2598 75.7148 16.2598C75.3372 16.2598 75.0215 16.3379 74.7676 16.4941C74.5202 16.6504 74.3216 16.8815 74.1719 17.1875C74.0221 17.4935 73.9147 17.8711 73.8496 18.3203C73.7845 18.7695 73.752 19.2839 73.752 19.8633V25H70.7734V14.082H73.0488L73.4492 15.4785H73.6152C73.7715 15.1986 73.957 14.9577 74.1719 14.7559C74.3932 14.554 74.6341 14.388 74.8945 14.2578C75.1549 14.1276 75.4316 14.0332 75.7246 13.9746C76.0176 13.9095 76.3138 13.877 76.6133 13.877C77.362 13.877 77.9967 14.0072 78.5176 14.2676C79.0449 14.5215 79.4486 14.9251 79.7285 15.4785H79.9727C80.1289 15.1986 80.3177 14.9577 80.5391 14.7559C80.7604 14.554 81.0046 14.388 81.2715 14.2578C81.5384 14.1276 81.8184 14.0332 82.1113 13.9746C82.4108 13.9095 82.7103 13.877 83.0098 13.877C84.1816 13.877 85.0638 14.196 85.6562 14.834C86.2552 15.4655 86.5547 16.4811 86.5547 17.8809V25H83.5664V18.623C83.5664 17.8353 83.4492 17.2461 83.2148 16.8555C82.9805 16.4583 82.6126 16.2598 82.1113 16.2598C81.4017 16.2598 80.8971 16.543 80.5977 17.1094C80.2982 17.6693 80.1484 18.4733 80.1484 19.5215V25ZM95.959 25L95.3828 23.5156H95.2949C95.0801 23.8086 94.8652 24.0625 94.6504 24.2773C94.4355 24.4857 94.2012 24.6582 93.9473 24.7949C93.6934 24.9316 93.4069 25.0326 93.0879 25.0977C92.7754 25.1628 92.4108 25.1953 91.9941 25.1953C91.5514 25.1953 91.1413 25.127 90.7637 24.9902C90.3861 24.847 90.0573 24.6354 89.7773 24.3555C89.5039 24.069 89.2891 23.7109 89.1328 23.2812C88.9766 22.8451 88.8984 22.3307 88.8984 21.7383C88.8984 20.5794 89.2695 19.7266 90.0117 19.1797C90.7539 18.6263 91.8639 18.3203 93.3418 18.2617L95.0801 18.2031V17.3828C95.0801 16.9336 94.9499 16.6016 94.6895 16.3867C94.429 16.1719 94.0645 16.0645 93.5957 16.0645C93.127 16.0645 92.668 16.1328 92.2188 16.2695C91.776 16.4062 91.3301 16.5885 90.8809 16.8164L89.9141 14.8438C90.4609 14.5378 91.0664 14.2969 91.7305 14.1211C92.3945 13.9453 93.0911 13.8574 93.8203 13.8574C95.181 13.8574 96.2227 14.1764 96.9453 14.8145C97.6745 15.4525 98.0391 16.4225 98.0391 17.7246V25H95.959ZM95.0801 19.9414L94.0938 19.9805C93.6966 19.9935 93.3613 20.0456 93.0879 20.1367C92.8145 20.2279 92.5931 20.3516 92.4238 20.5078C92.2611 20.6576 92.1406 20.8398 92.0625 21.0547C91.9909 21.263 91.9551 21.4974 91.9551 21.7578C91.9551 22.2135 92.0658 22.5391 92.2871 22.7344C92.5085 22.9232 92.7982 23.0176 93.1562 23.0176C93.4297 23.0176 93.6836 22.972 93.918 22.8809C94.1523 22.7832 94.3542 22.6432 94.5234 22.4609C94.6992 22.2721 94.8359 22.0443 94.9336 21.7773C95.0312 21.5039 95.0801 21.1914 95.0801 20.8398V19.9414ZM100.979 11.2598C100.979 10.9798 101.021 10.7487 101.105 10.5664C101.19 10.3776 101.304 10.2279 101.447 10.1172C101.597 10 101.77 9.91862 101.965 9.87305C102.167 9.82747 102.378 9.80469 102.6 9.80469C102.821 9.80469 103.029 9.82747 103.225 9.87305C103.42 9.91862 103.589 10 103.732 10.1172C103.882 10.2279 103.999 10.3776 104.084 10.5664C104.175 10.7487 104.221 10.9798 104.221 11.2598C104.221 11.5332 104.175 11.7643 104.084 11.9531C103.999 12.1419 103.882 12.2949 103.732 12.4121C103.589 12.5228 103.42 12.6042 103.225 12.6562C103.029 12.7018 102.821 12.7246 102.6 12.7246C102.378 12.7246 102.167 12.7018 101.965 12.6562C101.77 12.6042 101.597 12.5228 101.447 12.4121C101.304 12.2949 101.19 12.1419 101.105 11.9531C101.021 11.7643 100.979 11.5332 100.979 11.2598ZM104.084 25H101.105V14.082H104.084V25ZM110.197 25H107.219V9.80469H110.197V25ZM124.826 13.0371C124.247 13.0371 123.732 13.151 123.283 13.3789C122.84 13.6003 122.466 13.9225 122.16 14.3457C121.861 14.7624 121.633 15.2734 121.477 15.8789C121.32 16.4779 121.242 17.1517 121.242 17.9004C121.242 18.6621 121.311 19.3392 121.447 19.9316C121.59 20.5241 121.805 21.0254 122.092 21.4355C122.385 21.8392 122.756 22.1484 123.205 22.3633C123.661 22.5716 124.201 22.6758 124.826 22.6758C125.406 22.6758 125.985 22.6107 126.564 22.4805C127.15 22.3503 127.785 22.1647 128.469 21.9238V24.4629C128.156 24.5931 127.847 24.7038 127.541 24.7949C127.235 24.8861 126.923 24.9609 126.604 25.0195C126.285 25.0781 125.956 25.1204 125.617 25.1465C125.285 25.179 124.927 25.1953 124.543 25.1953C123.443 25.1953 122.489 25.0195 121.682 24.668C120.874 24.3164 120.207 23.8216 119.68 23.1836C119.152 22.5456 118.762 21.7773 118.508 20.8789C118.254 19.9805 118.127 18.9811 118.127 17.8809C118.127 16.8001 118.273 15.8105 118.566 14.9121C118.859 14.0072 119.289 13.2292 119.855 12.5781C120.422 11.9271 121.122 11.4225 121.955 11.0645C122.788 10.6999 123.745 10.5176 124.826 10.5176C125.536 10.5176 126.245 10.6087 126.955 10.791C127.671 10.9668 128.355 11.2109 129.006 11.5234L128.029 13.9844C127.495 13.7305 126.958 13.5091 126.418 13.3203C125.878 13.1315 125.347 13.0371 124.826 13.0371ZM138.42 25L138.02 23.6035H137.863C137.701 23.8835 137.505 24.1243 137.277 24.3262C137.056 24.5215 136.812 24.6842 136.545 24.8145C136.278 24.9447 135.995 25.0391 135.695 25.0977C135.396 25.1628 135.09 25.1953 134.777 25.1953C134.243 25.1953 133.758 25.1204 133.322 24.9707C132.886 24.8145 132.512 24.5736 132.199 24.248C131.887 23.9225 131.646 23.5091 131.477 23.0078C131.307 22.5065 131.223 21.9043 131.223 21.2012V14.082H134.201V20.459C134.201 21.2467 134.318 21.8392 134.553 22.2363C134.794 22.627 135.174 22.8223 135.695 22.8223C136.086 22.8223 136.411 22.7441 136.672 22.5879C136.932 22.4316 137.137 22.2005 137.287 21.8945C137.443 21.5885 137.554 21.2109 137.619 20.7617C137.684 20.3125 137.717 19.7982 137.717 19.2188V14.082H140.695V25H138.42ZM151.096 21.7578C151.096 22.3307 150.992 22.832 150.783 23.2617C150.575 23.6914 150.279 24.0495 149.895 24.3359C149.51 24.6224 149.045 24.8372 148.498 24.9805C147.951 25.1237 147.339 25.1953 146.662 25.1953C146.304 25.1953 145.972 25.1823 145.666 25.1562C145.36 25.1367 145.07 25.1009 144.797 25.0488C144.523 24.9967 144.26 24.9316 144.006 24.8535C143.752 24.7754 143.495 24.6777 143.234 24.5605V22.0996C143.508 22.2363 143.794 22.36 144.094 22.4707C144.4 22.5814 144.702 22.679 145.002 22.7637C145.301 22.8418 145.591 22.9036 145.871 22.9492C146.158 22.9948 146.421 23.0176 146.662 23.0176C146.929 23.0176 147.157 22.9948 147.346 22.9492C147.535 22.8971 147.688 22.8288 147.805 22.7441C147.928 22.653 148.016 22.5488 148.068 22.4316C148.127 22.3079 148.156 22.1777 148.156 22.041C148.156 21.9043 148.133 21.7839 148.088 21.6797C148.049 21.569 147.954 21.4551 147.805 21.3379C147.655 21.2142 147.434 21.0775 147.141 20.9277C146.854 20.7715 146.467 20.5827 145.979 20.3613C145.503 20.1465 145.09 19.9349 144.738 19.7266C144.393 19.5117 144.107 19.2741 143.879 19.0137C143.658 18.7533 143.492 18.457 143.381 18.125C143.27 17.7865 143.215 17.3861 143.215 16.9238C143.215 16.416 143.312 15.9733 143.508 15.5957C143.703 15.2116 143.98 14.8926 144.338 14.6387C144.696 14.3848 145.126 14.196 145.627 14.0723C146.135 13.9421 146.698 13.877 147.316 13.877C147.967 13.877 148.586 13.9518 149.172 14.1016C149.758 14.2513 150.36 14.4759 150.979 14.7754L150.08 16.8848C149.585 16.6504 149.113 16.4583 148.664 16.3086C148.215 16.1589 147.766 16.084 147.316 16.084C146.913 16.084 146.62 16.1556 146.438 16.2988C146.262 16.4421 146.174 16.6374 146.174 16.8848C146.174 17.015 146.197 17.1322 146.242 17.2363C146.288 17.334 146.379 17.4382 146.516 17.5488C146.652 17.653 146.844 17.7702 147.092 17.9004C147.339 18.0241 147.661 18.1771 148.059 18.3594C148.521 18.5612 148.938 18.763 149.309 18.9648C149.68 19.1602 149.999 19.3848 150.266 19.6387C150.533 19.8926 150.738 20.1888 150.881 20.5273C151.024 20.8659 151.096 21.276 151.096 21.7578ZM157.883 22.8223C158.176 22.8223 158.452 22.7897 158.713 22.7246C158.98 22.6595 159.25 22.5781 159.523 22.4805V24.6973C159.243 24.8405 158.895 24.9577 158.479 25.0488C158.068 25.1465 157.619 25.1953 157.131 25.1953C156.656 25.1953 156.213 25.14 155.803 25.0293C155.393 24.9186 155.038 24.7266 154.738 24.4531C154.439 24.1732 154.201 23.8021 154.025 23.3398C153.856 22.8711 153.771 22.2852 153.771 21.582V16.3184H152.346V15.0586L153.986 14.0625L154.846 11.7578H156.75V14.082H159.406V16.3184H156.75V21.582C156.75 22.0052 156.854 22.3177 157.062 22.5195C157.271 22.7214 157.544 22.8223 157.883 22.8223ZM164.211 19.5215C164.211 20.6087 164.364 21.429 164.67 21.9824C164.976 22.5293 165.474 22.8027 166.164 22.8027C166.848 22.8027 167.342 22.526 167.648 21.9727C167.954 21.4193 168.107 20.6022 168.107 19.5215C168.107 18.4342 167.954 17.6237 167.648 17.0898C167.342 16.5495 166.841 16.2793 166.145 16.2793C165.461 16.2793 164.966 16.5495 164.66 17.0898C164.361 17.6237 164.211 18.4342 164.211 19.5215ZM171.145 19.5215C171.145 20.4329 171.027 21.2402 170.793 21.9434C170.565 22.6465 170.233 23.2389 169.797 23.7207C169.367 24.2025 168.84 24.5703 168.215 24.8242C167.596 25.0716 166.9 25.1953 166.125 25.1953C165.402 25.1953 164.738 25.0716 164.133 24.8242C163.527 24.5703 163.003 24.2025 162.561 23.7207C162.124 23.2389 161.783 22.6465 161.535 21.9434C161.288 21.2402 161.164 20.4329 161.164 19.5215C161.164 18.6165 161.278 17.8125 161.506 17.1094C161.74 16.4062 162.072 15.8171 162.502 15.3418C162.938 14.86 163.465 14.4954 164.084 14.248C164.702 14.0007 165.402 13.877 166.184 13.877C166.906 13.877 167.57 14.0007 168.176 14.248C168.781 14.4954 169.302 14.86 169.738 15.3418C170.181 15.8171 170.526 16.4062 170.773 17.1094C171.021 17.8125 171.145 18.6165 171.145 19.5215ZM183.098 25H180.119V18.623C180.119 17.8353 180.002 17.2461 179.768 16.8555C179.533 16.4583 179.165 16.2598 178.664 16.2598C178.286 16.2598 177.971 16.3379 177.717 16.4941C177.469 16.6504 177.271 16.8815 177.121 17.1875C176.971 17.4935 176.864 17.8711 176.799 18.3203C176.734 18.7695 176.701 19.2839 176.701 19.8633V25H173.723V14.082H175.998L176.398 15.4785H176.564C176.721 15.1986 176.906 14.9577 177.121 14.7559C177.342 14.554 177.583 14.388 177.844 14.2578C178.104 14.1276 178.381 14.0332 178.674 13.9746C178.967 13.9095 179.263 13.877 179.562 13.877C180.311 13.877 180.946 14.0072 181.467 14.2676C181.994 14.5215 182.398 14.9251 182.678 15.4785H182.922C183.078 15.1986 183.267 14.9577 183.488 14.7559C183.71 14.554 183.954 14.388 184.221 14.2578C184.488 14.1276 184.768 14.0332 185.061 13.9746C185.36 13.9095 185.66 13.877 185.959 13.877C187.131 13.877 188.013 14.196 188.605 14.834C189.204 15.4655 189.504 16.4811 189.504 17.8809V25H186.516V18.623C186.516 17.8353 186.398 17.2461 186.164 16.8555C185.93 16.4583 185.562 16.2598 185.061 16.2598C184.351 16.2598 183.846 16.543 183.547 17.1094C183.247 17.6693 183.098 18.4733 183.098 19.5215V25ZM192.443 11.2598C192.443 10.9798 192.486 10.7487 192.57 10.5664C192.655 10.3776 192.769 10.2279 192.912 10.1172C193.062 10 193.234 9.91862 193.43 9.87305C193.632 9.82747 193.843 9.80469 194.064 9.80469C194.286 9.80469 194.494 9.82747 194.689 9.87305C194.885 9.91862 195.054 10 195.197 10.1172C195.347 10.2279 195.464 10.3776 195.549 10.5664C195.64 10.7487 195.686 10.9798 195.686 11.2598C195.686 11.5332 195.64 11.7643 195.549 11.9531C195.464 12.1419 195.347 12.2949 195.197 12.4121C195.054 12.5228 194.885 12.6042 194.689 12.6562C194.494 12.7018 194.286 12.7246 194.064 12.7246C193.843 12.7246 193.632 12.7018 193.43 12.6562C193.234 12.6042 193.062 12.5228 192.912 12.4121C192.769 12.2949 192.655 12.1419 192.57 11.9531C192.486 11.7643 192.443 11.5332 192.443 11.2598ZM195.549 25H192.57V14.082H195.549V25ZM205.686 25H197.658V23.2422L202.121 16.3574H197.961V14.082H205.5V16.0156L201.184 22.7246H205.686V25ZM212.238 15.9961C211.711 15.9961 211.271 16.1816 210.92 16.5527C210.575 16.9238 210.376 17.5065 210.324 18.3008H214.123C214.117 17.9688 214.074 17.6628 213.996 17.3828C213.918 17.1029 213.801 16.862 213.645 16.6602C213.488 16.4518 213.293 16.2891 213.059 16.1719C212.824 16.0547 212.551 15.9961 212.238 15.9961ZM212.619 25.1953C211.838 25.1953 211.118 25.0814 210.461 24.8535C209.803 24.6257 209.237 24.2839 208.762 23.8281C208.286 23.3659 207.915 22.7865 207.648 22.0898C207.388 21.3867 207.258 20.5632 207.258 19.6191C207.258 18.6621 207.378 17.8255 207.619 17.1094C207.86 16.3932 208.195 15.7975 208.625 15.3223C209.061 14.8405 209.582 14.4792 210.188 14.2383C210.799 13.9974 211.477 13.877 212.219 13.877C212.941 13.877 213.592 13.9876 214.172 14.209C214.758 14.4238 215.253 14.7428 215.656 15.166C216.066 15.5892 216.379 16.11 216.594 16.7285C216.815 17.3405 216.926 18.0436 216.926 18.8379V20.2832H210.266C210.279 20.6999 210.344 21.0775 210.461 21.416C210.585 21.748 210.754 22.0312 210.969 22.2656C211.19 22.4935 211.454 22.6693 211.76 22.793C212.072 22.9167 212.427 22.9785 212.824 22.9785C213.156 22.9785 213.469 22.9622 213.762 22.9297C214.061 22.8906 214.351 22.8353 214.631 22.7637C214.911 22.6921 215.188 22.6042 215.461 22.5C215.734 22.3893 216.014 22.2624 216.301 22.1191V24.4238C216.04 24.5605 215.777 24.6777 215.51 24.7754C215.249 24.8665 214.973 24.9447 214.68 25.0098C214.387 25.0749 214.071 25.1204 213.732 25.1465C213.394 25.179 213.023 25.1953 212.619 25.1953ZM225.139 13.877C225.217 13.877 225.301 13.8802 225.393 13.8867C225.49 13.8867 225.581 13.8932 225.666 13.9062C225.757 13.9128 225.839 13.9225 225.91 13.9355C225.988 13.9421 226.047 13.9518 226.086 13.9648V16.7578C226.034 16.7448 225.962 16.7318 225.871 16.7188C225.78 16.7057 225.682 16.696 225.578 16.6895C225.48 16.6764 225.383 16.6699 225.285 16.6699C225.188 16.6634 225.106 16.6602 225.041 16.6602C224.657 16.6602 224.302 16.709 223.977 16.8066C223.658 16.9043 223.381 17.0638 223.146 17.2852C222.919 17.5 222.74 17.7865 222.609 18.1445C222.486 18.4961 222.424 18.929 222.424 19.4434V25H219.445V14.082H221.701L222.141 15.7227H222.287C222.443 15.4427 222.613 15.1888 222.795 14.9609C222.977 14.7331 223.179 14.541 223.4 14.3848C223.628 14.222 223.882 14.0983 224.162 14.0137C224.449 13.9225 224.774 13.877 225.139 13.877Z" fill="#0A1E43"/>
<path d="M61.9258 33.4492C62.293 33.4492 62.627 33.5195 62.9277 33.6602C63.2285 33.8008 63.4844 34.0117 63.6953 34.293C63.9102 34.5703 64.0762 34.916 64.1934 35.3301C64.3105 35.7441 64.3691 36.2246 64.3691 36.7715C64.3691 37.3223 64.3105 37.8066 64.1934 38.2246C64.0762 38.6387 63.9102 38.9863 63.6953 39.2676C63.4844 39.5488 63.2285 39.7617 62.9277 39.9062C62.627 40.0469 62.293 40.1172 61.9258 40.1172C61.6953 40.1172 61.4863 40.0918 61.2988 40.041C61.1113 39.9902 60.9414 39.9238 60.7891 39.8418C60.6406 39.7559 60.5078 39.6562 60.3906 39.543C60.2773 39.4297 60.1758 39.3105 60.0859 39.1855H60.0156L59.7988 40H59.0195V30.8828H60.0859V33.0859C60.0859 33.2227 60.084 33.3691 60.0801 33.5254C60.0762 33.6777 60.0703 33.8203 60.0625 33.9531C60.0547 34.1094 60.0469 34.2617 60.0391 34.4102H60.0859C60.1758 34.2734 60.2773 34.1465 60.3906 34.0293C60.5039 33.9121 60.6348 33.8105 60.7832 33.7246C60.9355 33.6387 61.1055 33.5723 61.293 33.5254C61.4805 33.4746 61.6914 33.4492 61.9258 33.4492ZM61.7207 34.334C61.4082 34.334 61.1465 34.3848 60.9355 34.4863C60.7285 34.584 60.5605 34.7344 60.4316 34.9375C60.3066 35.1406 60.2168 35.3945 60.1621 35.6992C60.1113 36.0039 60.0859 36.3613 60.0859 36.7715C60.0859 37.166 60.1113 37.5176 60.1621 37.8262C60.2168 38.1309 60.3066 38.3887 60.4316 38.5996C60.5605 38.8066 60.7305 38.9648 60.9414 39.0742C61.1523 39.1797 61.416 39.2324 61.7324 39.2324C62.2598 39.2324 62.6465 39.0195 62.8926 38.5938C63.1426 38.168 63.2676 37.5566 63.2676 36.7598C63.2676 35.9473 63.1426 35.3398 62.8926 34.9375C62.6465 34.5352 62.2559 34.334 61.7207 34.334ZM65.0898 33.5664H66.1973L67.457 37.1582C67.5117 37.3145 67.5664 37.4785 67.6211 37.6504C67.6797 37.8223 67.7324 37.9941 67.7793 38.166C67.8301 38.3379 67.873 38.5039 67.9082 38.6641C67.9434 38.8242 67.9688 38.9727 67.9844 39.1094H68.0195C68.0391 39.0117 68.0703 38.8789 68.1133 38.7109C68.1562 38.543 68.2031 38.3652 68.2539 38.1777C68.3086 37.9863 68.3633 37.7988 68.418 37.6152C68.4766 37.4316 68.5273 37.2754 68.5703 37.1465L69.7363 33.5664H70.8379L68.2949 40.8379C68.1855 41.1543 68.0664 41.4375 67.9375 41.6875C67.8125 41.9414 67.666 42.1562 67.498 42.332C67.3301 42.5078 67.1328 42.6426 66.9062 42.7363C66.6797 42.834 66.4102 42.8828 66.0977 42.8828C65.8945 42.8828 65.7188 42.8711 65.5703 42.8477C65.4219 42.8281 65.2949 42.8066 65.1895 42.7832V41.9336C65.2715 41.9531 65.375 41.9688 65.5 41.9805C65.625 41.9961 65.7559 42.0039 65.8926 42.0039C66.0801 42.0039 66.2422 41.9805 66.3789 41.9336C66.5156 41.8906 66.6348 41.8262 66.7363 41.7402C66.8379 41.6543 66.9238 41.5488 66.9941 41.4238C67.0684 41.2988 67.1348 41.1562 67.1934 40.9961L67.5273 40.0586L65.0898 33.5664ZM78.666 40L78.4492 39.1094H78.4023C78.2734 39.2852 78.1445 39.4375 78.0156 39.5664C77.8867 39.6914 77.7461 39.7949 77.5938 39.877C77.4414 39.959 77.2715 40.0195 77.084 40.0586C76.8965 40.0977 76.6797 40.1172 76.4336 40.1172C76.1641 40.1172 75.916 40.0781 75.6895 40C75.4629 39.9258 75.2656 39.8105 75.0977 39.6543C74.9336 39.4941 74.8047 39.2949 74.7109 39.0566C74.6172 38.8145 74.5703 38.5293 74.5703 38.2012C74.5703 37.5605 74.7949 37.0684 75.2441 36.7246C75.6973 36.3809 76.3848 36.1934 77.3066 36.1621L78.3848 36.1211V35.7168C78.3848 35.4551 78.3555 35.2363 78.2969 35.0605C78.2422 34.8848 78.1602 34.7441 78.0508 34.6387C77.9453 34.5293 77.8125 34.4512 77.6523 34.4043C77.4961 34.3574 77.3164 34.334 77.1133 34.334C76.7891 34.334 76.4863 34.3809 76.2051 34.4746C75.9277 34.5684 75.6602 34.6816 75.4023 34.8145L75.0273 34.0117C75.3164 33.8555 75.6387 33.7227 75.9941 33.6133C76.3496 33.5039 76.7227 33.4492 77.1133 33.4492C77.5117 33.4492 77.8555 33.4902 78.1445 33.5723C78.4375 33.6504 78.6777 33.7773 78.8652 33.9531C79.0566 34.125 79.1992 34.3457 79.293 34.6152C79.3867 34.8848 79.4336 35.2109 79.4336 35.5938V40H78.666ZM76.709 39.2559C76.9473 39.2559 77.168 39.2188 77.3711 39.1445C77.5742 39.0703 77.75 38.959 77.8984 38.8105C78.0469 38.6582 78.1621 38.4688 78.2441 38.2422C78.3301 38.0117 78.373 37.7422 78.373 37.4336V36.8535L77.5352 36.8945C77.1836 36.9102 76.8887 36.9492 76.6504 37.0117C76.4121 37.0742 76.2207 37.1621 76.0762 37.2754C75.9355 37.3848 75.834 37.5195 75.7715 37.6797C75.709 37.8359 75.6777 38.0137 75.6777 38.2129C75.6777 38.5723 75.7715 38.8359 75.959 39.0039C76.1504 39.1719 76.4004 39.2559 76.709 39.2559ZM83.875 40.1172C83.4805 40.1172 83.1113 40.0566 82.7676 39.9355C82.4238 39.8105 82.125 39.6152 81.8711 39.3496C81.6172 39.0801 81.418 38.7383 81.2734 38.3242C81.1289 37.9062 81.0566 37.4043 81.0566 36.8184C81.0566 36.2051 81.1309 35.6855 81.2793 35.2598C81.4277 34.8301 81.6309 34.4824 81.8887 34.2168C82.1504 33.9473 82.4551 33.752 82.8027 33.6309C83.1504 33.5098 83.5234 33.4492 83.9219 33.4492C84.2266 33.4492 84.5234 33.4824 84.8125 33.5488C85.1055 33.6152 85.3496 33.6973 85.5449 33.7949L85.2285 34.6973C85.1387 34.6582 85.0391 34.6211 84.9297 34.5859C84.8203 34.5469 84.707 34.5137 84.5898 34.4863C84.4727 34.4551 84.3574 34.4316 84.2441 34.416C84.1309 34.3965 84.0234 34.3867 83.9219 34.3867C83.3086 34.3867 82.8613 34.584 82.5801 34.9785C82.2988 35.3691 82.1582 35.9785 82.1582 36.8066C82.1582 37.6309 82.2988 38.2344 82.5801 38.6172C82.8652 38.9961 83.2969 39.1855 83.875 39.1855C84.1914 39.1855 84.4766 39.1504 84.7305 39.0801C84.9883 39.0059 85.2227 38.9199 85.4336 38.8223V39.7715C85.2227 39.8848 84.9961 39.9707 84.7539 40.0293C84.5156 40.0879 84.2227 40.1172 83.875 40.1172ZM92.2129 36.7715C92.2129 37.3066 92.1465 37.7832 92.0137 38.2012C91.8848 38.6152 91.6973 38.9648 91.4512 39.25C91.209 39.5312 90.9141 39.7461 90.5664 39.8945C90.2188 40.043 89.8281 40.1172 89.3945 40.1172C88.9922 40.1172 88.6211 40.043 88.2812 39.8945C87.9414 39.7461 87.6465 39.5312 87.3965 39.25C87.1504 38.9648 86.957 38.6152 86.8164 38.2012C86.6797 37.7832 86.6113 37.3066 86.6113 36.7715C86.6113 36.2402 86.6758 35.7695 86.8047 35.3594C86.9375 34.9453 87.125 34.5977 87.3672 34.3164C87.6094 34.0312 87.9043 33.8164 88.252 33.6719C88.6035 33.5234 88.9961 33.4492 89.4297 33.4492C89.832 33.4492 90.2031 33.5234 90.543 33.6719C90.8828 33.8164 91.1758 34.0312 91.4219 34.3164C91.6719 34.5977 91.8652 34.9453 92.002 35.3594C92.1426 35.7695 92.2129 36.2402 92.2129 36.7715ZM87.7129 36.7715C87.7129 37.5879 87.8457 38.2031 88.1113 38.6172C88.3809 39.0273 88.8164 39.2324 89.418 39.2324C90.0195 39.2324 90.4512 39.0273 90.7129 38.6172C90.9785 38.2031 91.1113 37.5879 91.1113 36.7715C91.1113 35.9551 90.9766 35.3457 90.707 34.9434C90.4414 34.5371 90.0078 34.334 89.4062 34.334C88.8047 34.334 88.3711 34.5371 88.1055 34.9434C87.8438 35.3457 87.7129 35.9551 87.7129 36.7715ZM98.7812 40L97.7969 36.3906C97.7812 36.3203 97.7617 36.2422 97.7383 36.1562C97.7148 36.0664 97.6914 35.9727 97.668 35.875C97.6445 35.7773 97.6191 35.6777 97.5918 35.5762C97.5684 35.4746 97.5449 35.375 97.5215 35.2773C97.4668 35.0508 97.4102 34.8164 97.3516 34.5742H97.3164C97.2617 34.8203 97.209 35.0566 97.1582 35.2832C97.1152 35.4785 97.0684 35.6797 97.0176 35.8867C96.9707 36.0938 96.9258 36.2695 96.8828 36.4141L95.875 40H94.6387L92.9922 33.5664H94.1113L94.8789 36.9883C94.918 37.1641 94.957 37.3555 94.9961 37.5625C95.0352 37.7656 95.0723 37.9688 95.1074 38.1719C95.1426 38.3711 95.1738 38.5605 95.2012 38.7402C95.2285 38.916 95.25 39.0605 95.2656 39.1738H95.3008C95.3203 39.0723 95.3457 38.9375 95.377 38.7695C95.4121 38.5977 95.4492 38.418 95.4883 38.2305C95.5312 38.0391 95.5742 37.8516 95.6172 37.668C95.6602 37.4805 95.7012 37.3223 95.7402 37.1934L96.7891 33.5664H97.9375L98.9453 37.1934C98.9805 37.3262 99.0195 37.4824 99.0625 37.6621C99.1094 37.8418 99.1543 38.0254 99.1973 38.2129C99.2402 38.3965 99.2793 38.5742 99.3145 38.7461C99.3496 38.918 99.375 39.0605 99.3906 39.1738H99.4258C99.4375 39.0723 99.4551 38.9375 99.4785 38.7695C99.5059 38.5977 99.5371 38.4102 99.5723 38.207C99.6074 38.0039 99.6445 37.7969 99.6836 37.5859C99.7266 37.3711 99.7695 37.1719 99.8125 36.9883L100.615 33.5664H101.705L100.041 40H98.7812ZM105.391 40.1172C104.961 40.1172 104.568 40.0449 104.213 39.9004C103.857 39.7559 103.551 39.5449 103.293 39.2676C103.039 38.9902 102.842 38.6465 102.701 38.2363C102.561 37.8262 102.49 37.3574 102.49 36.8301C102.49 36.2988 102.555 35.8242 102.684 35.4062C102.812 34.9883 102.994 34.6348 103.229 34.3457C103.463 34.0527 103.742 33.8301 104.066 33.6777C104.395 33.5254 104.756 33.4492 105.15 33.4492C105.537 33.4492 105.885 33.5195 106.193 33.6602C106.502 33.7969 106.764 33.9922 106.979 34.2461C107.193 34.4961 107.357 34.7988 107.471 35.1543C107.588 35.5059 107.646 35.8965 107.646 36.3262V36.9883H103.592C103.611 37.7422 103.77 38.2969 104.066 38.6523C104.367 39.0078 104.812 39.1855 105.402 39.1855C105.602 39.1855 105.785 39.1758 105.953 39.1562C106.125 39.1367 106.289 39.1094 106.445 39.0742C106.605 39.0352 106.76 38.9883 106.908 38.9336C107.057 38.875 107.207 38.8105 107.359 38.7402V39.6895C107.203 39.7637 107.049 39.8281 106.896 39.8828C106.748 39.9375 106.594 39.9824 106.434 40.0176C106.277 40.0527 106.113 40.0781 105.941 40.0938C105.773 40.1094 105.59 40.1172 105.391 40.1172ZM105.127 34.334C104.682 34.334 104.328 34.4863 104.066 34.791C103.809 35.0957 103.658 35.5391 103.615 36.1211H106.498C106.498 35.8555 106.471 35.6133 106.416 35.3945C106.365 35.1719 106.283 34.9824 106.17 34.8262C106.061 34.6699 105.92 34.5488 105.748 34.4629C105.576 34.377 105.369 34.334 105.127 34.334ZM112.176 33.4492C112.543 33.4492 112.877 33.5195 113.178 33.6602C113.479 33.8008 113.734 34.0117 113.945 34.293C114.16 34.5703 114.326 34.916 114.443 35.3301C114.561 35.7441 114.619 36.2246 114.619 36.7715C114.619 37.3223 114.561 37.8066 114.443 38.2246C114.326 38.6387 114.16 38.9863 113.945 39.2676C113.734 39.5488 113.479 39.7617 113.178 39.9062C112.877 40.0469 112.543 40.1172 112.176 40.1172C111.945 40.1172 111.736 40.0918 111.549 40.041C111.361 39.9902 111.191 39.9238 111.039 39.8418C110.891 39.7559 110.758 39.6562 110.641 39.543C110.527 39.4297 110.426 39.3105 110.336 39.1855H110.266L110.049 40H109.27V30.8828H110.336V33.0859C110.336 33.2227 110.334 33.3691 110.33 33.5254C110.326 33.6777 110.32 33.8203 110.312 33.9531C110.305 34.1094 110.297 34.2617 110.289 34.4102H110.336C110.426 34.2734 110.527 34.1465 110.641 34.0293C110.754 33.9121 110.885 33.8105 111.033 33.7246C111.186 33.6387 111.355 33.5723 111.543 33.5254C111.73 33.4746 111.941 33.4492 112.176 33.4492ZM111.971 34.334C111.658 34.334 111.396 34.3848 111.186 34.4863C110.979 34.584 110.811 34.7344 110.682 34.9375C110.557 35.1406 110.467 35.3945 110.412 35.6992C110.361 36.0039 110.336 36.3613 110.336 36.7715C110.336 37.166 110.361 37.5176 110.412 37.8262C110.467 38.1309 110.557 38.3887 110.682 38.5996C110.811 38.8066 110.98 38.9648 111.191 39.0742C111.402 39.1797 111.666 39.2324 111.982 39.2324C112.51 39.2324 112.896 39.0195 113.143 38.5938C113.393 38.168 113.518 37.5566 113.518 36.7598C113.518 35.9473 113.393 35.3398 113.143 34.9375C112.896 34.5352 112.506 34.334 111.971 34.334ZM120.15 38.2363C120.15 38.5488 120.094 38.8223 119.98 39.0566C119.867 39.291 119.703 39.4883 119.488 39.6484C119.277 39.8047 119.021 39.9219 118.721 40C118.42 40.0781 118.082 40.1172 117.707 40.1172C117.281 40.1172 116.916 40.082 116.611 40.0117C116.307 39.9453 116.039 39.8457 115.809 39.7129V38.7402C115.93 38.8027 116.064 38.8652 116.213 38.9277C116.361 38.9863 116.518 39.0391 116.682 39.0859C116.846 39.1328 117.014 39.1719 117.186 39.2031C117.361 39.2305 117.535 39.2441 117.707 39.2441C117.961 39.2441 118.176 39.2227 118.352 39.1797C118.531 39.1367 118.676 39.0762 118.785 38.998C118.898 38.916 118.98 38.8184 119.031 38.7051C119.082 38.5879 119.107 38.459 119.107 38.3184C119.107 38.1973 119.088 38.0879 119.049 37.9902C119.01 37.8926 118.938 37.7969 118.832 37.7031C118.73 37.6055 118.59 37.5078 118.41 37.4102C118.23 37.3125 118 37.2031 117.719 37.082C117.438 36.9609 117.184 36.8418 116.957 36.7246C116.734 36.6074 116.545 36.4766 116.389 36.332C116.232 36.1875 116.111 36.0215 116.025 35.834C115.943 35.6426 115.902 35.416 115.902 35.1543C115.902 34.8809 115.955 34.6387 116.061 34.4277C116.17 34.2129 116.322 34.0332 116.518 33.8887C116.713 33.7441 116.947 33.6348 117.221 33.5605C117.494 33.4863 117.799 33.4492 118.135 33.4492C118.514 33.4492 118.859 33.4902 119.172 33.5723C119.488 33.6543 119.787 33.7617 120.068 33.8945L119.699 34.7559C119.445 34.6426 119.184 34.5449 118.914 34.4629C118.648 34.377 118.377 34.334 118.1 34.334C117.701 34.334 117.406 34.4004 117.215 34.5332C117.023 34.6621 116.928 34.8477 116.928 35.0898C116.928 35.2266 116.949 35.3457 116.992 35.4473C117.039 35.5488 117.117 35.6445 117.227 35.7344C117.336 35.8242 117.482 35.916 117.666 36.0098C117.85 36.0996 118.078 36.2012 118.352 36.3145C118.633 36.4316 118.883 36.5488 119.102 36.666C119.324 36.7832 119.514 36.916 119.67 37.0645C119.826 37.209 119.945 37.375 120.027 37.5625C120.109 37.75 120.15 37.9746 120.15 38.2363Z" fill="#0A1E43" fill-opacity="0.75"/>
<g filter="url(#filter0_d_402_354)">
<path d="M21.6738 7.91033C24.8434 5.58334 29.1566 5.58334 32.3262 7.91033L33.1176 8.49137C34.0125 9.14833 35.0211 9.63407 36.0927 9.92408L37.0404 10.1806C40.8359 11.2078 43.5252 14.58 43.6821 18.509L43.7212 19.49C43.7655 20.5992 44.0147 21.6907 44.456 22.7093L44.8464 23.6101C46.4097 27.218 45.4499 31.4232 42.476 33.9955L41.7334 34.6378C40.8938 35.364 40.1958 36.2393 39.6746 37.2194L39.2137 38.0863C37.3676 41.5581 33.4815 43.4295 29.6162 42.7082L28.651 42.5281C27.5598 42.3245 26.4402 42.3245 25.349 42.5281L24.3838 42.7082C20.5185 43.4295 16.6324 41.5581 14.7863 38.0863L14.3254 37.2194C13.8042 36.2393 13.1062 35.364 12.2666 34.6378L11.524 33.9955C8.55005 31.4232 7.59026 27.218 9.15361 23.6101L9.54397 22.7093C9.98534 21.6907 10.2345 20.5992 10.2787 19.49L10.3179 18.509C10.4748 14.58 13.1641 11.2078 16.9596 10.1806L17.9073 9.92408C18.9789 9.63407 19.9875 9.14833 20.8824 8.49137L21.6738 7.91033Z" fill="url(#paint0_linear_402_354)"/>
</g>
<path opacity="0.4" d="M30.4913 16.6663H23.5079C20.4746 16.6663 18.6663 18.4746 18.6663 21.5079V28.4829C18.6663 31.5246 20.4746 33.3329 23.5079 33.3329H30.4829C33.5163 33.3329 35.3246 31.5246 35.3246 28.4913V21.5079C35.3329 18.4746 33.5246 16.6663 30.4913 16.6663Z" fill="white"/>
<path d="M34.7496 25.1917H31.8496C31.0329 25.1917 30.3079 25.6417 29.9413 26.375L29.2413 27.7583C29.0746 28.0917 28.7413 28.3 28.3746 28.3H25.6413C25.3829 28.3 25.0163 28.2417 24.7746 27.7583L24.0746 26.3833C23.7079 25.6583 22.9746 25.2 22.1663 25.2H19.2496C18.9246 25.2 18.6663 25.4583 18.6663 25.7833V28.5C18.6663 31.525 20.4829 33.3333 23.5163 33.3333H30.4996C33.3579 33.3333 35.1163 31.7667 35.3329 28.9833V25.775C35.3329 25.4583 35.0746 25.1917 34.7496 25.1917Z" fill="white"/>
<path d="M28.2918 21.4999H25.7085C25.3835 21.4999 25.1251 21.2416 25.1251 20.9166C25.1251 20.5916 25.3835 20.3333 25.7085 20.3333H28.2918C28.6168 20.3333 28.8751 20.5916 28.8751 20.9166C28.8751 21.2416 28.6085 21.4999 28.2918 21.4999Z" fill="white"/>
<path d="M28.9413 23.8247H25.0579C24.7329 23.8247 24.4746 23.5664 24.4746 23.2414C24.4746 22.9164 24.7329 22.6581 25.0579 22.6581H28.9329C29.2579 22.6581 29.5163 22.9164 29.5163 23.2414C29.5163 23.5664 29.2579 23.8247 28.9413 23.8247Z" fill="white"/>
<defs>
<filter id="filter0_d_402_354" x="0.411255" y="0.165039" width="53.1775" height="52.6964" filterUnits="userSpaceOnUse" color-interpolation-filters="sRGB">
<feFlood flood-opacity="0" result="BackgroundImageFix"/>
<feColorMatrix in="SourceAlpha" type="matrix" values="0 0 0 0 0 0 0 0 0 0 0 0 0 0 0 0 0 0 127 0" result="hardAlpha"/>
<feOffset dy="2"/>
<feGaussianBlur stdDeviation="4"/>
<feComposite in2="hardAlpha" operator="out"/>
<feColorMatrix type="matrix" values="0 0 0 0 0.0392157 0 0 0 0 0.117647 0 0 0 0 0.262745 0 0 0 0.16 0"/>
<feBlend mode="normal" in2="BackgroundImageFix" result="effect1_dropShadow_402_354"/>
<feBlend mode="normal" in="SourceGraphic" in2="effect1_dropShadow_402_354" result="shape"/>
</filter>
<linearGradient id="paint0_linear_402_354" x1="27" y1="4" x2="27" y2="46" gradientUnits="userSpaceOnUse">
<stop stop-color="#20ADFD"/>
<stop offset="1" stop-color="#206FFD"/>
</linearGradient>
</defs>
</svg>
