<svg width="90" height="90" viewBox="0 0 90 90" fill="none" xmlns="http://www.w3.org/2000/svg">
<rect width="90" height="90" rx="10" fill="#FCF7E3"/>
<path d="M63.7011 34.6749V60.0248H21.452V34.6749L42.5772 22.0005L63.7011 34.6749Z" fill="#FFA001"/>
<path d="M63.7011 34.6749V60.0248H42.5771V22.0005L63.7011 34.6749Z" fill="#F87F02"/>
<path d="M16 34.675L21.4521 22H42.577L37.1249 34.675H16Z" fill="#FFDA2D"/>
<path d="M69.1538 34.675L63.7017 22H42.5769L48.029 34.675H69.1538Z" fill="#FCBE00"/>
<path d="M28.2422 49.4026H31.652V52.8124H28.2422V49.4026Z" fill="#FFDA2D"/>
<path d="M74.1943 55.8C74.1943 62.6868 68.6112 68.2698 61.7245 68.2698C54.8366 68.2698 49.2535 62.6868 49.2535 55.8C49.2535 48.9122 54.8366 43.3291 61.7245 43.3291C68.6112 43.3291 74.1943 48.912 74.1943 55.8Z" fill="#83E470"/>
<path d="M74.1944 55.8C74.1944 62.6868 68.6114 68.2698 61.7246 68.2698V43.3291C68.6114 43.3291 74.1944 48.912 74.1944 55.8Z" fill="#01B763"/>
<path d="M68.2499 53.7811L61.7246 60.3063L60.5936 61.4374L55.1981 56.0417L57.61 53.631L60.5936 56.6146L61.7246 55.4838L65.838 51.3704L68.2499 53.7811Z" fill="#F3FDFF"/>
<path d="M68.2499 53.7811L61.7246 60.3063V55.4838L65.838 51.3704L68.2499 53.7811Z" fill="#D7F3F7"/>
</svg>
