<svg width="90" height="90" viewBox="0 0 90 90" fill="none" xmlns="http://www.w3.org/2000/svg">
<rect width="90" height="90" rx="10" fill="#FCF7E3"/>
<g clip-path="url(#clip0_676_3)">
<path d="M50.52 55.7299C50.52 59.0027 49.2199 62.1414 46.9057 64.4556C44.5915 66.7698 41.4528 68.07 38.18 68.07H33.34C31.719 68.0717 30.1136 67.7537 28.6156 67.1342C27.1176 66.5148 25.7564 65.6061 24.61 64.46C22.8825 62.7342 21.7058 60.5346 21.229 58.1397C20.7521 55.7449 20.9965 53.2624 21.9312 51.0065C22.8659 48.7506 24.4489 46.8227 26.4798 45.4669C28.5107 44.111 30.8981 43.3883 33.34 43.39H38.18C39.8014 43.39 41.4068 43.7095 42.9046 44.3303C44.4024 44.951 45.7632 45.8609 46.9092 47.0079C48.0553 48.1548 48.964 49.5163 49.5836 51.0146C50.2031 52.5129 50.5213 54.1186 50.52 55.7399V55.7299Z" fill="#FFB703"/>
<path d="M35.76 36.8C40.123 36.8 43.66 33.2631 43.66 28.9C43.66 24.537 40.123 21 35.76 21C31.3969 21 27.86 24.537 27.86 28.9C27.86 33.2631 31.3969 36.8 35.76 36.8Z" fill="#FB8500"/>
<path d="M68.06 38.29H50.06C49.6622 38.29 49.2807 38.132 48.9994 37.8506C48.7181 37.5693 48.56 37.1878 48.56 36.79C48.56 36.3922 48.7181 36.0106 48.9994 35.7293C49.2807 35.448 49.6622 35.29 50.06 35.29H68.06C68.4578 35.29 68.8394 35.448 69.1207 35.7293C69.402 36.0106 69.56 36.3922 69.56 36.79C69.56 37.1878 69.402 37.5693 69.1207 37.8506C68.8394 38.132 68.4578 38.29 68.06 38.29Z" fill="#F92626"/>
<path d="M59.07 47.29C58.6722 47.29 58.2906 47.132 58.0093 46.8506C57.728 46.5693 57.57 46.1878 57.57 45.79V27.79C57.57 27.3922 57.728 27.0106 58.0093 26.7293C58.2906 26.448 58.6722 26.29 59.07 26.29C59.4678 26.29 59.8494 26.448 60.1307 26.7293C60.412 27.0106 60.57 27.3922 60.57 27.79V45.79C60.57 46.1878 60.412 46.5693 60.1307 46.8506C59.8494 47.132 59.4678 47.29 59.07 47.29Z" fill="#F92626"/>
</g>
<defs>
<clipPath id="clip0_676_3">
<rect width="48.57" height="47.07" fill="white" transform="translate(21 21)"/>
</clipPath>
</defs>
</svg>
