<svg width="90" height="90" viewBox="0 0 90 90" fill="none" xmlns="http://www.w3.org/2000/svg">
<rect width="90" height="90" rx="10" fill="#FCF7E3"/>
<path d="M63.7012 34.6749V60.0249H21.452V34.6749L42.5772 22.0005L63.7012 34.6749Z" fill="#FFA001"/>
<path d="M63.7013 34.6749V60.0249H42.5773V22.0005L63.7013 34.6749Z" fill="#F87F02"/>
<path d="M16 34.675L21.4521 22H42.5771L37.1249 34.675H16Z" fill="#FFDA2D"/>
<path d="M69.154 34.675L63.7018 22H42.577L48.0291 34.675H69.154Z" fill="#FCBE00"/>
<path d="M28.2423 49.4028H31.6522V52.8127H28.2423V49.4028Z" fill="#FFDA2D"/>
<path d="M74.2612 55.8001C74.2612 62.6868 68.6782 68.2699 61.7914 68.2699C54.9035 68.2699 49.3204 62.6868 49.3204 55.8001C49.3204 48.9122 54.9035 43.3291 61.7914 43.3291C68.6782 43.3291 74.2612 48.912 74.2612 55.8001V55.8001Z" fill="#206FFD"/>
<rect x="58" y="49" width="3" height="8" fill="white"/>
<rect x="58" y="58" width="3" height="2" fill="white"/>
</svg>
