<svg width="34" height="26" viewBox="0 0 34 26" fill="none" xmlns="http://www.w3.org/2000/svg">
<path d="M18.6842 4.49792V19.6558" stroke="#016FFF" stroke-width="2" stroke-linecap="round" stroke-linejoin="round"/>
<path d="M11.1053 16.2022C11.1052 16.0082 11.1723 15.8201 11.295 15.6699C11.4178 15.5197 11.5887 15.4165 11.7789 15.3779C12.5396 15.2225 13.2234 14.8091 13.7144 14.2075C14.2055 13.606 14.4737 12.8534 14.4737 12.0769C14.4737 11.3004 14.2055 10.5477 13.7144 9.9462C13.2234 9.34469 12.5396 8.93125 11.7789 8.77581C11.5887 8.73722 11.4178 8.63407 11.295 8.48385C11.1723 8.33363 11.1052 8.14559 11.1053 7.95158V5.34003C11.1053 5.11669 11.194 4.9025 11.3519 4.74457C11.5098 4.58665 11.724 4.49792 11.9474 4.49792H32.1579C32.3812 4.49792 32.5954 4.58665 32.7533 4.74457C32.9113 4.9025 33 5.11669 33 5.34003V7.95158C33 8.14559 32.933 8.33364 32.8102 8.48386C32.6875 8.63408 32.5165 8.73722 32.3264 8.77582C31.5656 8.93125 30.8819 9.34469 30.3908 9.9462C29.8998 10.5477 29.6316 11.3004 29.6316 12.0769C29.6316 12.8534 29.8998 13.606 30.3908 14.2076C30.8819 14.8091 31.5656 15.2225 32.3264 15.3779C32.5165 15.4165 32.6874 15.5197 32.8102 15.6699C32.933 15.8201 33 16.0082 33 16.2022V18.8137C33 19.0371 32.9113 19.2512 32.7533 19.4092C32.5954 19.5671 32.3812 19.6558 32.1579 19.6558H11.9474C11.724 19.6558 11.5098 19.5671 11.3519 19.4092C11.194 19.2512 11.1053 19.0371 11.1053 18.8137V16.2022Z" stroke="#016FFF" stroke-width="2" stroke-linecap="round" stroke-linejoin="round"/>
<path d="M1 1H6.89474L11.1053 15.3158" stroke="#016FFF" stroke-width="2" stroke-linecap="round"/>
<circle cx="14.8947" cy="24.1579" r="1.26316" fill="#016FFF"/>
<circle cx="29.2105" cy="24.1579" r="1.26316" fill="#016FFF"/>
</svg>
