<svg width="20" height="20" viewBox="0 0 20 20" fill="none" xmlns="http://www.w3.org/2000/svg">
<path d="M5.84128 15.0003L2.49961 11.6586C1.38294 10.5419 1.38294 9.43357 2.49961 8.3169L8.06628 2.75024L14.1913 8.87527C14.4996 9.18361 14.4996 9.68358 14.1913 9.99191L9.17461 15.0086C8.07461 16.1086 6.95794 16.1086 5.84128 15.0003Z" stroke="white" stroke-width="1.5" stroke-miterlimit="10" stroke-linecap="round" stroke-linejoin="round"/>
<path d="M6.95898 1.62476L8.07565 2.74139" stroke="white" stroke-width="1.5" stroke-miterlimit="10" stroke-linecap="round" stroke-linejoin="round"/>
<path d="M1.72461 9.93352L14.3246 9.38354" stroke="white" stroke-width="1.5" stroke-miterlimit="10" stroke-linecap="round" stroke-linejoin="round"/>
<path d="M2.5 18.3335H13.3333" stroke="white" stroke-width="1.5" stroke-miterlimit="10" stroke-linecap="round" stroke-linejoin="round"/>
<path d="M15.7077 12.5C15.7077 12.5 14.166 14.175 14.166 15.2C14.166 16.05 14.8577 16.7416 15.7077 16.7416C16.5577 16.7416 17.2493 16.05 17.2493 15.2C17.2493 14.175 15.7077 12.5 15.7077 12.5Z" stroke="white" stroke-width="1.5" stroke-linecap="round" stroke-linejoin="round"/>
</svg>
