<svg width="90" height="90" viewBox="0 0 90 90" fill="none" xmlns="http://www.w3.org/2000/svg">
<rect width="90" height="90" rx="10" fill="#FCF7E3"/>
<path fill-rule="evenodd" clip-rule="evenodd" d="M41.0285 40.9744V67.9986C41.0285 67.9986 26.226 61.664 20.0226 59.0166L20.0052 58.9868V31.9802L20.0226 32.0135L41.0099 40.9955L41.0285 40.9744Z" fill="#FCD062"/>
<path fill-rule="evenodd" clip-rule="evenodd" d="M62.0354 31.978L62.0179 32.011L41.0291 40.9944V68L62.0179 59.0166L62.0354 58.9835V31.978Z" fill="#F8AA3A"/>
<path fill-rule="evenodd" clip-rule="evenodd" d="M40.6781 23L20 31.9812V32.0039L41.0285 41.0273L62.07 31.9812L41.2459 23.0001H41.0285H40.6781V23Z" fill="#F8B84E"/>
<path d="M49.8626 54.959L44.6158 57.2041M55.1094 56.3049L49.8626 58.5502L44.6158 60.7955L55.1094 56.3049Z" stroke="#1C4D7E" stroke-width="0.90822" stroke-linecap="round" stroke-linejoin="round"/>
<path fill-rule="evenodd" clip-rule="evenodd" d="M47.5167 25.7137L47.3872 25.7613L26.4996 34.7929V47.4774L30.2079 45.6482L33.8662 51.1356L33.8625 37.955L54.7545 28.829L47.5167 25.7137Z" fill="#E9EDED"/>
<circle cx="58" cy="55" r="11" fill="#27AE60"/>
<path d="M59.551 57.2857H57.5918C57.397 57.2857 57.2101 57.2055 57.0723 57.0626C56.9346 56.9197 56.8571 56.7259 56.8571 56.5238V53.4762C56.8571 53.2741 56.9346 53.0803 57.0723 52.9375C57.2101 52.7946 57.397 52.7143 57.5918 52.7143C57.7867 52.7143 57.9736 52.7946 58.1113 52.9375C58.2491 53.0803 58.3265 53.2741 58.3265 53.4762V55.7619H59.551C59.7459 55.7619 59.9327 55.8422 60.0705 55.9851C60.2083 56.128 60.2857 56.3217 60.2857 56.5238C60.2857 56.7259 60.2083 56.9197 60.0705 57.0626C59.9327 57.2055 59.7459 57.2857 59.551 57.2857Z" fill="white"/>
<path d="M64.6667 55.5C64.5341 55.5 64.4069 55.4473 64.3131 55.3536C64.2194 55.2598 64.1667 55.1326 64.1667 55C64.1667 53.7803 63.8051 52.588 63.1275 51.5738C62.4499 50.5596 61.4868 49.7692 60.3599 49.3024C59.2331 48.8357 57.9931 48.7135 56.7969 48.9515C55.6006 49.1895 54.5018 49.7768 53.6393 50.6393C53.4326 50.8464 53.2406 51.0676 53.0647 51.3013C52.9851 51.4074 52.8667 51.4776 52.7354 51.4963C52.6041 51.5151 52.4708 51.4809 52.3647 51.4013C52.2586 51.3218 52.1885 51.2033 52.1697 51.0721C52.1509 50.9408 52.1851 50.8074 52.2647 50.7013C52.4693 50.431 52.692 50.1748 52.9313 49.9347C53.9334 48.9322 55.2103 48.2493 56.6005 47.9725C57.9906 47.6957 59.4317 47.8374 60.7413 48.3795C62.051 48.9217 63.1705 49.8401 63.9582 51.0186C64.7459 52.197 65.1664 53.5825 65.1667 55C65.1667 55.1326 65.114 55.2598 65.0202 55.3536C64.9265 55.4473 64.7993 55.5 64.6667 55.5ZM58 62.1667C57.0588 62.1668 56.1268 61.9816 55.2572 61.6215C54.3877 61.2614 53.5975 60.7335 52.932 60.068C52.2665 59.4025 51.7386 58.6124 51.3785 57.7428C51.0184 56.8732 50.8332 55.9412 50.8333 55C50.8333 54.8674 50.886 54.7402 50.9798 54.6465C51.0736 54.5527 51.2007 54.5 51.3333 54.5C51.466 54.5 51.5931 54.5527 51.6869 54.6465C51.7807 54.7402 51.8333 54.8674 51.8333 55C51.8333 56.2197 52.1949 57.412 52.8725 58.4262C53.5501 59.4404 54.5132 60.2308 55.6401 60.6976C56.7669 61.1644 58.0069 61.2865 59.2032 61.0485C60.3994 60.8105 61.4983 60.2232 62.3607 59.3607C62.5673 59.154 62.7591 58.933 62.9347 58.6993C63.0169 58.6008 63.1337 58.5376 63.2612 58.5227C63.3886 58.5078 63.5169 58.5425 63.6196 58.6195C63.7222 58.6965 63.7914 58.8099 63.8128 58.9364C63.8342 59.0629 63.8063 59.1929 63.7347 59.2993C63.5303 59.5701 63.3076 59.8265 63.068 60.0667C62.404 60.7343 61.6142 61.2637 60.7443 61.6242C59.8744 61.9846 58.9416 62.169 58 62.1667Z" fill="white"/>
<path d="M63.6567 61.1567C63.524 61.1567 63.3969 61.104 63.3031 61.0102C63.2093 60.9164 63.1567 60.7893 63.1567 60.6567V59.2713H61.7707C61.638 59.2713 61.5109 59.2186 61.4171 59.1249C61.3233 59.0311 61.2707 58.9039 61.2707 58.7713C61.2707 58.6387 61.3233 58.5115 61.4171 58.4178C61.5109 58.324 61.638 58.2713 61.7707 58.2713H63.6567C63.7893 58.2713 63.9164 58.324 64.0102 58.4178C64.104 58.5115 64.1567 58.6387 64.1567 58.7713V60.6567C64.1567 60.7893 64.104 60.9164 64.0102 61.0102C63.9164 61.104 63.7893 61.1567 63.6567 61.1567ZM54.2287 51.7287H52.3433C52.2107 51.7287 52.0835 51.676 51.9898 51.5822C51.896 51.4884 51.8433 51.3613 51.8433 51.2287V49.3433C51.8433 49.2107 51.896 49.0835 51.9898 48.9898C52.0835 48.896 52.2107 48.8433 52.3433 48.8433C52.4759 48.8433 52.6031 48.896 52.6969 48.9898C52.7906 49.0835 52.8433 49.2107 52.8433 49.3433V50.7287H54.2287C54.3613 50.7287 54.4884 50.7813 54.5822 50.8751C54.676 50.9689 54.7287 51.096 54.7287 51.2287C54.7287 51.3613 54.676 51.4884 54.5822 51.5822C54.4884 51.676 54.3613 51.7287 54.2287 51.7287Z" fill="white"/>
</svg>
