<svg width="90" height="90" viewBox="0 0 90 90" fill="none" xmlns="http://www.w3.org/2000/svg">
<rect width="90" height="90" rx="10" fill="#FCF7E3"/>
<path d="M69.732 38.6789C69.5458 38.4789 69.2774 38.3758 69.0042 38.3758H66.005C64.7939 33.3639 61.9618 28.822 57.962 25.5094C53.675 21.9593 48.2442 20.0029 42.6687 20C42.5769 20 42.4842 20.0196 42.406 20.0678C42.1949 20.1978 42.1192 20.4468 42.199 20.6597L44.8764 27.8049C44.9478 27.9956 45.13 28.1219 45.3336 28.1219C51.6649 28.1219 57.2125 32.3729 58.9227 38.3758H56.3475C56.0741 38.3758 55.8059 38.4789 55.6196 38.6789C55.2687 39.0559 55.2704 39.6084 55.5779 39.9774L61.9256 47.5946C62.1111 47.8173 62.386 47.9461 62.6759 47.9461C62.9657 47.9461 63.2405 47.8174 63.4262 47.5946L69.7738 39.9774C70.0813 39.6084 70.0829 39.0559 69.732 38.6789Z" fill="#507BE9"/>
<path d="M42.168 42.9492C48.1007 42.9492 52.9102 38.1398 52.9102 32.207C52.9102 26.2743 48.1007 21.4648 42.168 21.4648C36.2352 21.4648 31.4258 26.2743 31.4258 32.207C31.4258 38.1398 36.2352 42.9492 42.168 42.9492Z" fill="#FFEE78"/>
<path d="M52.9102 32.207C52.9102 26.2743 48.1007 21.4648 42.168 21.4648V42.9492C48.1007 42.9492 52.9102 38.1397 52.9102 32.207Z" fill="#FCD232"/>
<path d="M42.168 44.4141C35.437 44.4141 29.9609 38.938 29.9609 32.207C29.9609 25.4761 35.437 20 42.168 20C48.8989 20 54.375 25.4761 54.375 32.207C54.375 38.938 48.8989 44.4141 42.168 44.4141ZM42.168 22.9297C37.0524 22.9297 32.8906 27.0915 32.8906 32.207C32.8906 37.3226 37.0524 41.4844 42.168 41.4844C47.2835 41.4844 51.4453 37.3226 51.4453 32.207C51.4453 27.0915 47.2835 22.9297 42.168 22.9297Z" fill="#FCD232"/>
<path d="M51.4453 32.207C51.4453 37.3226 47.2835 41.4844 42.168 41.4844V44.4141C48.8989 44.4141 54.375 38.938 54.375 32.207C54.375 25.4761 48.8989 20 42.168 20V22.9297C47.2835 22.9297 51.4453 27.0915 51.4453 32.207Z" fill="#F7B90F"/>
<path d="M46.0742 34.6484C46.0742 32.4945 44.3219 30.7422 42.168 30.7422C41.6295 30.7422 41.1914 30.3041 41.1914 29.7656C41.1914 29.2271 41.6295 28.7891 42.168 28.7891C42.6305 28.7891 43.0328 29.117 43.1246 29.5688C43.2855 30.3616 44.0593 30.8738 44.8518 30.7129C45.6445 30.5519 46.1567 29.7786 45.9958 28.9857C45.7301 27.6775 44.8166 26.6287 43.6328 26.1467V25.8594C43.6328 25.0504 42.977 24.3945 42.168 24.3945C41.359 24.3945 40.7031 25.0504 40.7031 25.8594V26.1454C39.2731 26.7262 38.2617 28.1296 38.2617 29.7656C38.2617 31.9195 40.0141 33.6719 42.168 33.6719C42.7064 33.6719 43.1445 34.11 43.1445 34.6484C43.1445 35.1869 42.7064 35.625 42.168 35.625C41.7055 35.625 41.3031 35.2971 41.2113 34.8452C41.0504 34.0524 40.2772 33.5404 39.4842 33.7012C38.6913 33.8622 38.1792 34.6354 38.3401 35.4283C38.6059 36.7365 39.5193 37.7854 40.703 38.2675V38.5547C40.703 39.3637 41.3589 40.0195 42.1679 40.0195C42.9769 40.0195 43.6327 39.3637 43.6327 38.5547V38.2687C45.0628 37.6879 46.0742 36.2844 46.0742 34.6484Z" fill="#FCD232"/>
<path d="M42.168 30.7422V33.6719C42.7064 33.6719 43.1445 34.11 43.1445 34.6484C43.1445 35.1869 42.7064 35.625 42.168 35.625V40.0195C42.977 40.0195 43.6328 39.3637 43.6328 38.5547V38.2687C45.0628 37.6879 46.0742 36.2845 46.0742 34.6484C46.0742 32.4945 44.3219 30.7422 42.168 30.7422Z" fill="#F7B90F"/>
<path d="M43.1246 29.5688C43.2855 30.3616 44.0593 30.8738 44.8518 30.7129C45.6445 30.5519 46.1567 29.7786 45.9958 28.9857C45.7301 27.6775 44.8166 26.6287 43.6328 26.1467V25.8594C43.6328 25.0504 42.977 24.3945 42.168 24.3945V28.7891C42.6305 28.7891 43.0328 29.117 43.1246 29.5688Z" fill="#F7B90F"/>
<path d="M69.3815 54.272C68.2988 52.7257 66.1676 52.3499 64.6213 53.4326L54.1434 60.7693C53.7329 61.0567 53.244 61.2108 52.7431 61.2108H45V68.0468H53.3588C54.8619 68.0468 56.3285 67.5844 57.5598 66.7222L68.5421 59.0322C70.0885 57.9495 70.4644 55.8183 69.3815 54.272Z" fill="#FABE8C"/>
<path d="M54.1434 60.7695C53.7329 61.0569 53.244 61.211 52.7431 61.211L45 60.6106V64.1407H52.9102C56.4103 64.1407 59.2578 61.2932 59.2578 57.7931C59.2578 57.5957 59.2475 57.4008 59.2298 57.208L54.1434 60.7695Z" fill="#E6A578"/>
<path d="M69.3815 54.2721C68.2988 52.7258 66.1676 52.35 64.6213 53.4327L55.8091 59.6031C56.1376 59.078 56.3281 58.4579 56.3281 57.793C56.3281 55.9053 54.7979 54.375 52.9102 54.375H44.6094L43.6539 53.6584C41.7511 52.2312 39.3933 51.4453 37.0146 51.4453C35.0095 51.4453 33.0409 51.9905 31.3216 53.0222C31.3216 53.0222 29.6926 53.9996 28.7188 54.5838C28.2776 54.8485 28.0078 55.3253 28.0078 55.8398V66.582C28.0078 67.391 28.6637 68.0469 29.4727 68.0469H53.3588C54.8619 68.0469 56.3285 67.5845 57.5598 66.7223L68.5421 59.0323C70.0885 57.9496 70.4644 55.8184 69.3815 54.2721Z" fill="#FFD2AA"/>
<path d="M45 68.0468H53.3588C54.8619 68.0468 56.3285 67.5844 57.5598 66.7222L68.5421 59.0322C70.0884 57.9495 70.4642 55.8183 69.3814 54.272C68.2987 52.7257 66.1675 52.3499 64.6212 53.4326L55.809 59.603C56.1376 59.0779 56.3281 58.4578 56.3281 57.7929C56.3281 55.9052 54.7979 54.3749 52.9102 54.3749H45V68.0468Z" fill="#FABE8C"/>
<path d="M59.2298 57.208L55.8091 59.6032C55.7879 59.6371 55.7667 59.6711 55.7443 59.7041C55.1302 60.6133 54.0899 61.211 52.9102 61.211H42.6562C41.8473 61.211 41.1914 61.8669 41.1914 62.6759C41.1914 63.4849 41.8473 64.1407 42.6562 64.1407H52.9102C56.4103 64.1407 59.2578 61.2932 59.2578 57.7931C59.2578 57.5957 59.2475 57.4008 59.2298 57.208Z" fill="#FABE8C"/>
<path d="M29.4727 70H21.4648C20.6559 70 20 69.3441 20 68.5352V51.9336C20 51.1246 20.6559 50.4688 21.4648 50.4688H29.4727C30.2816 50.4688 30.9375 51.1246 30.9375 51.9336V68.5352C30.9375 69.3441 30.2816 70 29.4727 70Z" fill="#6496F7"/>
<path d="M59.2298 57.208L55.8091 59.6032C55.7879 59.6371 55.7667 59.6711 55.7443 59.7041C55.1302 60.6133 54.0899 61.211 52.9102 61.211H45V64.1407H52.9102C56.4103 64.1407 59.2578 61.2932 59.2578 57.7931C59.2578 57.5957 59.2475 57.4008 59.2298 57.208Z" fill="#E6A578"/>
</svg>
