<svg width="90" height="90" viewBox="0 0 90 90" fill="none" xmlns="http://www.w3.org/2000/svg">
<rect width="90" height="90" rx="10" fill="#FCF7E3"/>
<path d="M35.2017 29.8216C35.2017 29.0836 35.2848 28.3646 35.4413 27.6733C34.1697 28.3276 32.9629 29.1141 31.8456 30.0257C28.2191 32.9849 25.6788 37.1195 24.6927 41.6681C24.5784 42.1951 24.9131 42.715 25.4401 42.8294C25.967 42.9437 26.4872 42.6091 26.6014 42.0819C27.4942 37.9639 29.7952 34.2196 33.0805 31.5391C33.7537 30.9897 34.4633 30.4911 35.2017 30.0438V29.8216Z" fill="#03BED7"/>
<path d="M66.8737 43.4078H65.4576C64.5719 36.549 60.3162 30.7321 54.4106 27.6753C54.5669 28.366 54.6498 29.0843 54.6498 29.8216V30.0489C59.3347 32.9027 62.6766 37.7521 63.4854 43.4078H62.2271C61.773 43.4078 61.513 43.9253 61.7839 44.2896L64.1072 47.414C64.328 47.7109 64.7728 47.7109 64.9936 47.414L67.3169 44.2896C67.5879 43.9252 67.3278 43.4078 66.8737 43.4078Z" fill="#03BED7"/>
<path d="M63.0412 44.2896C62.7703 43.9252 63.0303 43.4077 63.4844 43.4077H62.2271C61.7731 43.4077 61.513 43.9252 61.7839 44.2896L64.1072 47.4139C64.328 47.7108 64.7728 47.7108 64.9936 47.4139L65.179 47.1645L63.0412 44.2896Z" fill="#07B2CD"/>
<path d="M28.3242 54.7801C27.3489 52.9271 26.674 50.8924 26.3662 48.7406H27.6648C28.1188 48.7406 28.3788 48.2231 28.1079 47.8588L25.7846 44.7344C25.5638 44.4375 25.1191 44.4375 24.8983 44.7344L22.5749 47.8588C22.304 48.2231 22.564 48.7406 23.0181 48.7406H24.394C24.8588 52.3397 26.2523 55.6513 28.3242 58.4286V54.7801Z" fill="#03BED7"/>
<path d="M23.8445 47.8588L25.9762 44.9921L25.7846 44.7344C25.5638 44.4375 25.1191 44.4375 24.8983 44.7344L22.5749 47.8588C22.304 48.2231 22.564 48.7406 23.0181 48.7406H24.2876C23.8336 48.7405 23.5736 48.2231 23.8445 47.8588Z" fill="#07B2CD"/>
<path d="M64.4113 49.3189C63.8844 49.2049 63.3642 49.5393 63.25 50.0664C62.8926 51.715 62.3089 53.3035 61.5272 54.788V58.4382C63.2827 56.0811 64.5335 53.3641 65.1588 50.4801C65.2731 49.9531 64.9385 49.4332 64.4113 49.3189Z" fill="#03BED7"/>
<path d="M54.8391 61.9893C51.8814 63.8292 48.4372 64.8241 44.9258 64.8241C41.2933 64.8241 37.8994 63.7849 35.0242 61.9893H31.7007C35.29 64.9771 39.9014 66.7772 44.9258 66.7772C49.6821 66.7772 54.3273 65.1242 58.0059 62.1227C58.0597 62.0787 58.1125 62.0337 58.1658 61.9893H54.8391Z" fill="#03BED7"/>
<path d="M39.0861 34.2587V29.8217C39.0861 26.6017 41.7057 23.9819 44.9258 23.9819C48.1459 23.9819 50.7656 26.6017 50.7656 29.8217V34.2587H54.7475V29.8217C54.7475 24.406 50.3415 20 44.9258 20C39.5101 20 35.1041 24.406 35.1041 29.8217V34.2587H39.0861Z" fill="#3692BC"/>
<path d="M50.7655 29.8217V34.2587H53.0726V29.8217C53.0726 26.6017 50.453 23.9819 47.2329 23.9819C46.838 23.9819 46.4524 24.0219 46.0793 24.0969C48.7487 24.6339 50.7655 26.9965 50.7655 29.8217Z" fill="#0681AF"/>
<path d="M37.4112 34.2587V29.8217C37.4112 24.7962 41.2053 20.641 46.0793 20.0681C45.7008 20.0236 45.316 20 44.9258 20C39.5101 20 35.1041 24.406 35.1041 29.8217V34.2587H37.4112Z" fill="#0681AF"/>
<path d="M56.6072 34.1611H33.2443C32.4834 34.1611 31.8666 34.7779 31.8666 35.5389V50.92H57.9849V35.5389C57.9849 34.7779 57.3681 34.1611 56.6072 34.1611Z" fill="#FFD400"/>
<path d="M36.9519 50.92V35.5389C36.9519 34.7779 37.5687 34.1611 38.3297 34.1611H33.2443C32.4835 34.1611 31.8666 34.7779 31.8666 35.5389V50.92H36.9519Z" fill="#FEB137"/>
<path d="M44.5154 50.0051C43.2493 50.0051 42.2192 48.975 42.2192 47.7089V44.745C41.1032 43.8439 40.5074 42.4484 40.6449 40.9902C40.8398 38.9231 42.5502 37.2564 44.6234 37.1132C44.7239 37.1063 44.8255 37.1028 44.9258 37.1028C47.2972 37.1028 49.2263 39.032 49.2263 41.4033C49.2263 42.7174 48.6388 43.933 47.6325 44.7451V47.7089C47.6325 48.975 46.6024 50.0051 45.3363 50.0051H44.5154Z" fill="#FFE177"/>
<path d="M47.8486 41.4032C47.8486 39.7204 46.4263 38.3697 44.7183 38.4877C43.3058 38.5852 42.1495 39.7098 42.0166 41.1195C41.9071 42.2803 42.4776 43.3173 43.3756 43.8803C43.5111 43.9653 43.597 44.1105 43.597 44.2704V47.7088C43.597 48.2161 44.0082 48.6273 44.5154 48.6273H45.3363C45.8435 48.6273 46.2548 48.2161 46.2548 47.7088V44.2729C46.2548 44.1117 46.3411 43.9651 46.4776 43.8794C47.301 43.3625 47.8486 42.447 47.8486 41.4032Z" fill="#3692BC"/>
<path d="M45.0997 47.709V44.2705C45.0997 44.1106 45.0137 43.9655 44.8783 43.8805C43.9803 43.3174 43.4098 42.2805 43.5193 41.1197C43.6347 39.896 44.5213 38.8876 45.6771 38.5788C45.3739 38.4984 45.0516 38.4648 44.7182 38.4878C43.3057 38.5854 42.1494 39.71 42.0165 41.1197C41.907 42.2805 42.4775 43.3175 43.3754 43.8805C43.511 43.9655 43.5968 44.1107 43.5968 44.2705V47.709C43.5968 48.2162 44.0081 48.6275 44.5153 48.6275H45.3362C45.4568 48.6275 45.5716 48.6036 45.6771 48.5614C45.3389 48.4259 45.0997 48.0956 45.0997 47.709Z" fill="#017297"/>
<path d="M60.1602 62.087H29.6914C28.8824 62.087 28.2266 61.4312 28.2266 60.6222V52.2871C28.2266 51.4781 28.8824 50.8223 29.6914 50.8223H60.1602C60.9691 50.8223 61.625 51.4781 61.625 52.2871V60.6222C61.625 61.4312 60.9691 62.087 60.1602 62.087Z" fill="#FD6930"/>
<path d="M36.8545 55.44L37.6065 55.0058C37.4229 54.8391 37.146 54.8014 36.9197 54.932L36.8545 54.9697V55.44Z" fill="#D73D24"/>
<path d="M35.6826 55.4399V54.4241C35.6826 54.2588 35.7513 54.1098 35.8613 54.0034C35.7559 53.9013 35.6124 53.8381 35.4541 53.8381C35.1306 53.8381 34.8682 54.1005 34.8682 54.4241V54.9697L35.6826 55.4399Z" fill="#D73D24"/>
<path d="M36.8545 57.4697V57.9399L36.9197 57.9776C37.012 58.0309 37.1128 58.0563 37.2122 58.0563C37.3563 58.0563 37.4972 58.0021 37.6058 57.9035L36.8545 57.4697Z" fill="#D73D24"/>
<path d="M35.6826 58.4855V57.4697L34.8682 57.9399V58.4855C34.8682 58.8091 35.1306 59.0715 35.4541 59.0715C35.6125 59.0715 35.7559 59.0084 35.8613 58.9063C35.7513 58.7998 35.6826 58.6508 35.6826 58.4855Z" fill="#D73D24"/>
<path d="M34.0024 57.763C33.8406 57.4827 33.9367 57.1243 34.2169 56.9626L35.0966 56.4547L34.2169 55.9468C33.9366 55.785 33.8406 55.4266 34.0024 55.1464C34.0336 55.0924 34.0723 55.0454 34.116 55.0056L33.9884 54.9319C33.7082 54.77 33.3497 54.8661 33.188 55.1463C33.0263 55.4265 33.1223 55.7849 33.4024 55.9467L34.2821 56.4546L33.4024 56.9625C33.1222 57.1243 33.0262 57.4827 33.188 57.7629C33.2965 57.9509 33.4935 58.056 33.696 58.056C33.7954 58.056 33.8962 58.0307 33.9885 57.9774L34.1169 57.9033C34.0729 57.8635 34.0337 57.8171 34.0024 57.763Z" fill="#D73D24"/>
<path d="M41.4541 55.4399V54.4241C41.4541 54.2588 41.5228 54.1098 41.6328 54.0034C41.5273 53.9013 41.3839 53.8381 41.2256 53.8381C40.9021 53.8381 40.6396 54.1005 40.6396 54.4241V54.9697L41.4541 55.4399Z" fill="#D73D24"/>
<path d="M42.626 55.44L43.378 55.0058C43.1944 54.8391 42.9175 54.8014 42.6912 54.932L42.626 54.9697V55.44Z" fill="#D73D24"/>
<path d="M42.626 57.4697V57.9399L42.6912 57.9776C42.7835 58.0309 42.8843 58.0563 42.9837 58.0563C43.1278 58.0563 43.2687 58.0021 43.3772 57.9035L42.626 57.4697Z" fill="#D73D24"/>
<path d="M41.4541 58.4855V57.4697L40.6396 57.9399V58.4855C40.6396 58.8091 40.9021 59.0715 41.2256 59.0715C41.384 59.0715 41.5273 59.0084 41.6328 58.9063C41.5228 58.7998 41.4541 58.6508 41.4541 58.4855Z" fill="#D73D24"/>
<path d="M39.7739 57.763C39.6121 57.4827 39.7082 57.1243 39.9884 56.9626L40.8681 56.4547L39.9884 55.9468C39.7081 55.785 39.6121 55.4266 39.7739 55.1464C39.8051 55.0924 39.8438 55.0454 39.8875 55.0056L39.7599 54.9319C39.4797 54.77 39.1213 54.8661 38.9595 55.1463C38.7977 55.4266 38.8938 55.7849 39.1739 55.9467L40.0536 56.4546L39.1739 56.9625C38.8937 57.1243 38.7977 57.4827 38.9595 57.7629C39.068 57.9509 39.2649 58.056 39.4675 58.056C39.5669 58.056 39.6677 58.0307 39.76 57.9774L39.8884 57.9033C39.8443 57.8635 39.8052 57.8171 39.7739 57.763Z" fill="#D73D24"/>
<path d="M47.2256 55.4399V54.4241C47.2256 54.2588 47.2942 54.1098 47.4043 54.0034C47.2988 53.9013 47.1554 53.8381 46.9971 53.8381C46.6735 53.8381 46.4111 54.1005 46.4111 54.4241V54.9697L47.2256 55.4399Z" fill="#D73D24"/>
<path d="M45.5454 57.763C45.3836 57.4827 45.4797 57.1243 45.7599 56.9626L46.6396 56.4547L45.7599 55.9468C45.4796 55.785 45.3836 55.4266 45.5454 55.1464C45.5766 55.0924 45.6152 55.0454 45.659 55.0056L45.5313 54.9319C45.2511 54.77 44.8928 54.8661 44.731 55.1463C44.5691 55.4266 44.6652 55.7849 44.9454 55.9467L45.8251 56.4546L44.9454 56.9625C44.6651 57.1243 44.5691 57.4827 44.731 57.7629C44.8395 57.9509 45.0364 58.056 45.239 58.056C45.3384 58.056 45.4392 58.0307 45.5314 57.9774L45.6599 57.9033C45.6159 57.8635 45.5767 57.8171 45.5454 57.763Z" fill="#D73D24"/>
<path d="M48.3975 55.44L49.1496 55.0058C48.966 54.8391 48.6891 54.8014 48.4628 54.932L48.3975 54.9697V55.44Z" fill="#D73D24"/>
<path d="M48.3975 57.4697V57.9399L48.4628 57.9776C48.5551 58.0309 48.6559 58.0563 48.7553 58.0563C48.8994 58.0563 49.0402 58.0021 49.1488 57.9035L48.3975 57.4697Z" fill="#D73D24"/>
<path d="M47.2256 58.4855V57.4697L46.4111 57.9399V58.4855C46.4111 58.8091 46.6735 59.0715 46.9971 59.0715C47.1555 59.0715 47.2988 59.0084 47.4043 58.9063C47.2942 58.7998 47.2256 58.6508 47.2256 58.4855Z" fill="#D73D24"/>
<path d="M52.9971 55.4399V54.4241C52.9971 54.2588 53.0657 54.1098 53.1758 54.0034C53.0703 53.9013 52.9269 53.8381 52.7686 53.8381C52.445 53.8381 52.1826 54.1005 52.1826 54.4241V54.9697L52.9971 55.4399Z" fill="#D73D24"/>
<path d="M54.1689 55.44L54.9211 55.0058C54.7375 54.8391 54.4605 54.8014 54.2343 54.932L54.1689 54.9697V55.44Z" fill="#D73D24"/>
<path d="M54.1689 57.4697V57.9399L54.2343 57.9776C54.3266 58.0309 54.4273 58.0563 54.5268 58.0563C54.6709 58.0563 54.8117 58.0021 54.9203 57.9035L54.1689 57.4697Z" fill="#D73D24"/>
<path d="M51.3169 57.7632C51.1551 57.4829 51.2512 57.1245 51.5313 56.9628L52.411 56.4549L51.5313 55.947C51.2511 55.7851 51.1551 55.4267 51.3169 55.1466C51.348 55.0926 51.3867 55.0456 51.4305 55.0058L51.3028 54.9321C51.0227 54.7703 50.6643 54.8664 50.5024 55.1466C50.3406 55.4268 50.4367 55.7851 50.7169 55.947L51.5966 56.4549L50.7169 56.9628C50.4366 57.1246 50.3406 57.483 50.5024 57.7632C50.6109 57.9512 50.8079 58.0562 51.0104 58.0562C51.1099 58.0562 51.2106 58.0309 51.3029 57.9776L51.4313 57.9035C51.3874 57.8637 51.3481 57.8173 51.3169 57.7632Z" fill="#D73D24"/>
<path d="M52.9971 58.4855V57.4697L52.1826 57.9399V58.4855C52.1826 58.8091 52.445 59.0715 52.7686 59.0715C52.927 59.0715 53.0703 59.0084 53.1758 58.9063C53.0657 58.7998 52.9971 58.6508 52.9971 58.4855Z" fill="#D73D24"/>
<path d="M32.9141 60.6222V52.2871C32.9141 51.4781 33.5699 50.8223 34.3789 50.8223H29.6914C28.8824 50.8223 28.2266 51.4781 28.2266 52.2871V60.6222C28.2266 61.4312 28.8824 62.087 29.6914 62.087H34.3789C33.5699 62.087 32.9141 61.4312 32.9141 60.6222Z" fill="#FD5426"/>
<path d="M38.5347 55.1464C38.3729 54.8663 38.0145 54.7701 37.7343 54.932L36.8546 55.4399V54.4241C36.8546 54.1005 36.5922 53.8381 36.2687 53.8381C35.9451 53.8381 35.6827 54.1005 35.6827 54.4241V55.4399L34.803 54.932C34.5228 54.7702 34.1643 54.8663 34.0026 55.1464C33.8408 55.4266 33.9368 55.785 34.217 55.9468L35.0967 56.4547L34.217 56.9626C33.9367 57.1245 33.8407 57.4829 34.0026 57.763C34.1111 57.951 34.308 58.0561 34.5106 58.0561C34.61 58.0561 34.7108 58.0308 34.8031 57.9775L35.6828 57.4696V58.4854C35.6828 58.8089 35.9452 59.0713 36.2688 59.0713C36.5923 59.0713 36.8547 58.8089 36.8547 58.4854V57.4696L37.7344 57.9775C37.8267 58.0307 37.9275 58.0561 38.0269 58.0561C38.2293 58.0561 38.4263 57.951 38.5349 57.763C38.6967 57.4828 38.6006 57.1244 38.3204 56.9626L37.4407 56.4547L38.3204 55.9468C38.6004 55.7851 38.6964 55.4267 38.5347 55.1464Z" fill="white"/>
<path d="M44.3062 55.1464C44.1444 54.8663 43.786 54.7701 43.5058 54.932L42.6261 55.4399V54.4241C42.6261 54.1005 42.3637 53.8381 42.0402 53.8381C41.7166 53.8381 41.4542 54.1005 41.4542 54.4241V55.4399L40.5744 54.932C40.2943 54.7702 39.9359 54.8663 39.774 55.1464C39.6122 55.4267 39.7083 55.785 39.9885 55.9468L40.8682 56.4547L39.9885 56.9626C39.7082 57.1245 39.6122 57.4829 39.774 57.763C39.8825 57.951 40.0795 58.0561 40.2821 58.0561C40.3815 58.0561 40.4823 58.0308 40.5745 57.9775L41.4543 57.4696V58.4854C41.4543 58.8089 41.7167 59.0713 42.0403 59.0713C42.3638 59.0713 42.6262 58.8089 42.6262 58.4854V57.4696L43.5059 57.9775C43.5982 58.0307 43.699 58.0561 43.7984 58.0561C44.0008 58.0561 44.1978 57.951 44.3064 57.763C44.4682 57.4828 44.3721 57.1244 44.0919 56.9626L43.2122 56.4547L44.0919 55.9468C44.3719 55.7851 44.468 55.4267 44.3062 55.1464Z" fill="white"/>
<path d="M50.0777 55.1464C49.9158 54.8663 49.5574 54.7701 49.2773 54.932L48.3975 55.4399V54.4241C48.3975 54.1005 48.1351 53.8381 47.8115 53.8381C47.488 53.8381 47.2256 54.1005 47.2256 54.4241V55.4399L46.3459 54.932C46.0656 54.7702 45.7073 54.8663 45.5455 55.1464C45.3837 55.4267 45.4798 55.785 45.76 55.9468L46.6397 56.4547L45.76 56.9626C45.4797 57.1245 45.3837 57.4829 45.5455 57.763C45.654 57.951 45.851 58.0561 46.0535 58.0561C46.153 58.0561 46.2537 58.0308 46.346 57.9775L47.2257 57.4696V58.4854C47.2257 58.8089 47.4881 59.0713 47.8116 59.0713C48.1352 59.0713 48.3976 58.8089 48.3976 58.4854V57.4696L49.2774 57.9775C49.3697 58.0307 49.4704 58.0561 49.5698 58.0561C49.7723 58.0561 49.9693 57.951 50.0779 57.763C50.2397 57.4828 50.1436 57.1244 49.8634 56.9626L48.9837 56.4547L49.8634 55.9468C50.1434 55.7851 50.2395 55.4267 50.0777 55.1464Z" fill="white"/>
<path d="M55.6347 56.9626L54.755 56.4547L55.6347 55.9468C55.915 55.785 56.011 55.4266 55.8491 55.1464C55.6873 54.8663 55.3289 54.7701 55.0488 54.932L54.169 55.4399V54.4241C54.169 54.1005 53.9066 53.8381 53.583 53.8381C53.2595 53.8381 52.9971 54.1005 52.9971 54.4241V55.4399L52.1174 54.932C51.8372 54.7702 51.4788 54.8663 51.317 55.1464C51.1552 55.4267 51.2513 55.785 51.5315 55.9468L52.4112 56.4547L51.5315 56.9626C51.2512 57.1245 51.1552 57.4829 51.317 57.763C51.4255 57.951 51.6225 58.0561 51.825 58.0561C51.9244 58.0561 52.0252 58.0308 52.1175 57.9775L52.9972 57.4696V58.4854C52.9972 58.8089 53.2596 59.0713 53.5831 59.0713C53.9067 59.0713 54.1691 58.8089 54.1691 58.4854V57.4696L55.0489 57.9775C55.1411 58.0307 55.2419 58.0561 55.3413 58.0561C55.5438 58.0561 55.7407 57.951 55.8493 57.763C56.011 57.4828 55.9149 57.1244 55.6347 56.9626Z" fill="white"/>
</svg>
