<svg width="10" height="10" viewBox="0 0 10 10" fill="none" xmlns="http://www.w3.org/2000/svg">
<path d="M5 0C4.01109 0 3.0444 0.293245 2.22215 0.842652C1.3999 1.39206 0.759043 2.17295 0.380605 3.08658C0.00216642 4.00021 -0.0968502 5.00555 0.0960758 5.97545C0.289002 6.94536 0.765206 7.83627 1.46447 8.53553C2.16373 9.23479 3.05465 9.711 4.02455 9.90392C4.99445 10.0969 5.99979 9.99783 6.91342 9.6194C7.82705 9.24096 8.60794 8.60009 9.15735 7.77785C9.70676 6.9556 10 5.98891 10 5C9.99847 3.67439 9.4712 2.4035 8.53385 1.46615C7.5965 0.528801 6.32561 0.00152691 5 0ZM5 9.23077C4.16323 9.23077 3.34526 8.98264 2.64951 8.51775C1.95377 8.05287 1.4115 7.39212 1.09128 6.61904C0.771064 5.84597 0.687281 4.99531 0.850526 4.17462C1.01377 3.35393 1.41671 2.60008 2.0084 2.00839C2.60008 1.41671 3.35393 1.01377 4.17462 0.850524C4.99531 0.687279 5.84597 0.771062 6.61905 1.09128C7.39212 1.4115 8.05287 1.95376 8.51776 2.64951C8.98264 3.34526 9.23077 4.16323 9.23077 5C9.22945 6.12166 8.78328 7.19701 7.99014 7.99014C7.19701 8.78328 6.12166 9.22944 5 9.23077ZM8.35423 5.24385L7.585 6.01308C7.51287 6.08518 7.41506 6.12569 7.31308 6.12569C7.21109 6.12569 7.11328 6.08518 7.04115 6.01308L6.27192 5.24385C6.23519 5.20837 6.20589 5.16593 6.18573 5.119C6.16557 5.07208 6.15496 5.02161 6.15452 4.97054C6.15408 4.91947 6.16381 4.86882 6.18315 4.82156C6.20249 4.77429 6.23104 4.73134 6.26716 4.69523C6.30327 4.65912 6.34621 4.63056 6.39348 4.61122C6.44075 4.59188 6.49139 4.58215 6.54246 4.58259C6.59353 4.58304 6.644 4.59365 6.69093 4.61381C6.73785 4.63396 6.78029 4.66326 6.81577 4.7L6.90231 4.78654C6.85391 4.37566 6.67359 3.99155 6.3884 3.69183C6.10321 3.39211 5.72852 3.19294 5.32055 3.1242C4.91258 3.05546 4.49332 3.12085 4.12567 3.31056C3.75801 3.50028 3.46177 3.80409 3.2814 4.17642C3.10103 4.54876 3.04625 4.96954 3.12527 5.37564C3.2043 5.78174 3.41287 6.15128 3.71969 6.42881C4.02652 6.70634 4.41506 6.8769 4.82703 6.91491C5.239 6.95291 5.65219 6.85632 6.00462 6.63961C6.09102 6.59316 6.19191 6.58149 6.28663 6.60697C6.38136 6.63245 6.46278 6.69316 6.51422 6.77669C6.56566 6.86021 6.58325 6.96024 6.56337 7.0563C6.5435 7.15236 6.48767 7.2372 6.40731 7.29346C5.90606 7.60152 5.31769 7.73691 4.7322 7.67892C4.14671 7.62092 3.59634 7.37273 3.16527 6.97231C2.7342 6.57189 2.44616 6.04128 2.34522 5.46165C2.24427 4.88202 2.33597 4.28529 2.6063 3.76271C2.87662 3.24014 3.31069 2.8205 3.8421 2.56799C4.3735 2.31547 4.973 2.24399 5.54889 2.36446C6.12477 2.48493 6.64534 2.79074 7.03097 3.23509C7.4166 3.67944 7.64605 4.23789 7.68423 4.825L7.81115 4.69846C7.84663 4.66173 7.88907 4.63242 7.936 4.61227C7.98292 4.59211 8.03339 4.5815 8.08446 4.58106C8.13553 4.58061 8.18618 4.59034 8.23344 4.60968C8.28071 4.62902 8.32366 4.65758 8.35977 4.69369C8.39588 4.72981 8.42444 4.77275 8.44378 4.82002C8.46312 4.86728 8.47285 4.91793 8.4724 4.969C8.47196 5.02007 8.46135 5.07054 8.44119 5.11746C8.42104 5.16439 8.39174 5.20683 8.355 5.24231L8.35423 5.24385Z" fill="#016FFF"/>
</svg>
