<svg width="34" height="25" viewBox="0 0 34 25" fill="none" xmlns="http://www.w3.org/2000/svg">
<path d="M12.0769 1V23.1538" stroke="#016FFF" stroke-width="2" stroke-linecap="round" stroke-linejoin="round"/>
<path d="M1 18.1062C0.999947 17.8227 1.09794 17.5478 1.27736 17.3283C1.45679 17.1087 1.70661 16.958 1.98449 16.9015C3.0964 16.6744 4.09571 16.0701 4.8134 15.191C5.53108 14.3118 5.92308 13.2118 5.92308 12.0769C5.92308 10.942 5.53108 9.842 4.8134 8.96286C4.09571 8.08373 3.0964 7.47947 1.98449 7.2523C1.70661 7.19589 1.45679 7.04514 1.27736 6.82559C1.09794 6.60604 0.999947 6.3312 1 6.04766V2.23077C1 1.90435 1.12967 1.5913 1.36048 1.36048C1.5913 1.12967 1.90435 1 2.23077 1H31.7692C32.0957 1 32.4087 1.12967 32.6395 1.36048C32.8703 1.5913 33 1.90435 33 2.23077V6.04766C33.0001 6.3312 32.9021 6.60604 32.7226 6.82559C32.5432 7.04514 32.2934 7.1959 32.0155 7.25231C30.9036 7.47948 29.9043 8.08374 29.1866 8.96287C28.4689 9.84201 28.0769 10.9421 28.0769 12.0769C28.0769 13.2118 28.4689 14.3119 29.1866 15.191C29.9043 16.0701 30.9036 16.6744 32.0155 16.9016C32.2934 16.958 32.5432 17.1087 32.7226 17.3283C32.9021 17.5478 33.0001 17.8227 33 18.1062V21.9231C33 22.2495 32.8703 22.5625 32.6395 22.7934C32.4087 23.0242 32.0957 23.1538 31.7692 23.1538H2.23077C1.90435 23.1538 1.5913 23.0242 1.36048 22.7934C1.12967 22.5625 1 22.2495 1 21.9231V18.1062Z" stroke="#016FFF" stroke-width="2" stroke-linecap="round" stroke-linejoin="round"/>
</svg>
