<svg width="32" height="32" viewBox="0 0 32 32" fill="none" xmlns="http://www.w3.org/2000/svg">
<path d="M27.4932 17.4268C26.9865 17.4268 26.5598 17.0401 26.4932 16.5335C26.1732 13.5201 24.5465 10.7868 22.0398 9.05347C21.5865 8.73347 21.4798 8.12014 21.7865 7.6668C22.1065 7.21347 22.7332 7.1068 23.1732 7.41347C26.1598 9.48014 28.0798 12.7335 28.4665 16.3201C28.5198 16.8668 28.1332 17.3601 27.5732 17.4268C27.5598 17.4268 27.5198 17.4268 27.4932 17.4268Z" fill="#206FFD"/>
<path d="M4.65321 17.4934C4.61321 17.4934 4.58654 17.4934 4.54654 17.4934C3.99987 17.4267 3.59987 16.9334 3.65321 16.3867C4.01321 12.8 5.91987 9.56002 8.86654 7.46668C9.31987 7.14668 9.94654 7.25335 10.2665 7.70669C10.5865 8.16002 10.4799 8.78668 10.0265 9.10668C7.54654 10.8534 5.94654 13.5867 5.63987 16.6C5.59987 17.1067 5.15987 17.4934 4.65321 17.4934Z" fill="#206FFD"/>
<path d="M16.0803 30.1467C14.1069 30.1467 12.2269 29.6934 10.4669 28.8134C9.97361 28.56 9.77361 27.96 10.0269 27.4667C10.2803 26.9734 10.8803 26.7734 11.3736 27.0267C14.2536 28.48 17.7203 28.5067 20.6269 27.1067C21.1203 26.8667 21.7203 27.08 21.9603 27.5734C22.2003 28.0667 21.9869 28.6667 21.4936 28.9067C19.7869 29.7334 17.9736 30.1467 16.0803 30.1467Z" fill="#206FFD"/>
<path d="M16.0797 11.2534C13.4797 11.2534 11.373 9.14675 11.373 6.54675C11.373 3.94675 13.4797 1.84009 16.0797 1.84009C18.6797 1.84009 20.7864 3.94675 20.7864 6.54675C20.7864 9.14675 18.6664 11.2534 16.0797 11.2534ZM16.0797 3.85342C14.5864 3.85342 13.373 5.06675 13.373 6.56009C13.373 8.05342 14.5864 9.26675 16.0797 9.26675C17.573 9.26675 18.7864 8.05342 18.7864 6.56009C18.7864 5.06675 17.5597 3.85342 16.0797 3.85342Z" fill="#206FFD"/>
<path d="M6.44007 27.5601C3.84007 27.5601 1.7334 25.4534 1.7334 22.8534C1.7334 20.2667 3.84007 18.1467 6.44007 18.1467C9.04007 18.1467 11.1467 20.2534 11.1467 22.8534C11.1467 25.4401 9.04007 27.5601 6.44007 27.5601ZM6.44007 20.1467C4.94673 20.1467 3.7334 21.3601 3.7334 22.8534C3.7334 24.3467 4.94673 25.5601 6.44007 25.5601C7.9334 25.5601 9.14673 24.3467 9.14673 22.8534C9.14673 21.3601 7.9334 20.1467 6.44007 20.1467Z" fill="#206FFD"/>
<path d="M25.5602 27.5601C22.9602 27.5601 20.8535 25.4534 20.8535 22.8534C20.8535 20.2667 22.9602 18.1467 25.5602 18.1467C28.1602 18.1467 30.2669 20.2534 30.2669 22.8534C30.2535 25.4401 28.1469 27.5601 25.5602 27.5601ZM25.5602 20.1467C24.0668 20.1467 22.8535 21.3601 22.8535 22.8534C22.8535 24.3467 24.0668 25.5601 25.5602 25.5601C27.0535 25.5601 28.2669 24.3467 28.2669 22.8534C28.2535 21.3601 27.0535 20.1467 25.5602 20.1467Z" fill="#206FFD"/>
</svg>
