<svg width="30" height="28" viewBox="0 0 30 28" fill="none" xmlns="http://www.w3.org/2000/svg">
<path d="M18.8184 11.1816H26.4547V16.2725L29.0002 17.5453V22.6362H26.1124" stroke="#206FFD" stroke-width="2" stroke-linecap="round" stroke-linejoin="round"/>
<path d="M18.8177 6.09082V22.6363H12.4541" stroke="#206FFD" stroke-width="2" stroke-linecap="round" stroke-linejoin="round"/>
<path d="M4.81818 22.6363H1V6.09082H8.63636" stroke="#206FFD" stroke-width="2" stroke-linecap="round" stroke-linejoin="round"/>
<path fill-rule="evenodd" clip-rule="evenodd" d="M4.81836 22.6365C4.81836 20.5276 6.52763 18.8184 8.63654 18.8184C10.7455 18.8184 12.4547 20.5276 12.4547 22.6365C12.4547 24.7455 10.7455 26.4547 8.63654 26.4547C6.52763 26.4547 4.81836 24.7455 4.81836 22.6365V22.6365Z" stroke="#206FFD" stroke-width="2" stroke-linecap="round" stroke-linejoin="round"/>
<path fill-rule="evenodd" clip-rule="evenodd" d="M21.3633 23.9092C21.3633 22.5029 22.5024 21.3638 23.9087 21.3638C25.3151 21.3638 26.4542 22.5029 26.4542 23.9092C26.4542 25.3156 25.3151 26.4547 23.9087 26.4547C22.5024 26.4547 21.3633 25.3156 21.3633 23.9092V23.9092Z" stroke="#206FFD" stroke-width="2" stroke-linecap="round" stroke-linejoin="round"/>
<path d="M6.09082 13.7275L10.1279 9.69043" stroke="#206FFD" stroke-width="2" stroke-linecap="round" stroke-linejoin="round"/>
<path fill-rule="evenodd" clip-rule="evenodd" d="M18.8185 6.09091C18.8185 8.90236 16.5391 11.1818 13.7276 11.1818C10.9162 11.1818 8.63672 8.90236 8.63672 6.09091C8.63672 3.27945 10.9162 1 13.7276 1C16.5391 1 18.8185 3.27945 18.8185 6.09091V6.09091Z" stroke="#206FFD" stroke-width="2" stroke-linecap="round" stroke-linejoin="round"/>
</svg>
