<svg width="32" height="32" viewBox="0 0 32 32" fill="none" xmlns="http://www.w3.org/2000/svg">
<path d="M28.4396 10.56C27.8929 10.56 27.4396 10.1066 27.4396 9.55996V7.13329C27.4396 6.15996 26.6529 5.37329 25.6796 5.37329H6.31957C5.34624 5.37329 4.55957 6.15996 4.55957 7.13329V9.57329C4.55957 10.12 4.10624 10.5733 3.55957 10.5733C3.0129 10.5733 2.55957 10.12 2.55957 9.55996V7.13329C2.55957 5.05329 4.2529 3.37329 6.31957 3.37329H25.6796C27.7596 3.37329 29.4396 5.06662 29.4396 7.13329V9.57329C29.4396 10.12 28.9996 10.56 28.4396 10.56Z" fill="#206FFD"/>
<path d="M16 28.6266C15.4533 28.6266 15 28.1733 15 27.6266V5.47998C15 4.93331 15.4533 4.47998 16 4.47998C16.5467 4.47998 17 4.93331 17 5.47998V27.6266C17 28.1866 16.5467 28.6266 16 28.6266Z" fill="#206FFD"/>
<path d="M21.2537 28.6267H10.7471C10.2004 28.6267 9.74707 28.1734 9.74707 27.6267C9.74707 27.08 10.2004 26.6267 10.7471 26.6267H21.2537C21.8004 26.6267 22.2537 27.08 22.2537 27.6267C22.2537 28.1734 21.8004 28.6267 21.2537 28.6267Z" fill="#206FFD"/>
</svg>
