<svg width="26" height="22" viewBox="0 0 26 22" fill="none" xmlns="http://www.w3.org/2000/svg">
<path d="M17.3671 15.1779L13.0039 10.8147L8.64062 15.1779" stroke="#0A1E43" stroke-width="2" stroke-linecap="round" stroke-linejoin="round"/>
<path d="M13.0039 10.8147V20.632" stroke="#206FFD" stroke-width="2" stroke-linecap="round" stroke-linejoin="round"/>
<path d="M22.1566 17.7849C23.2205 17.2048 24.061 16.2871 24.5453 15.1763C25.0297 14.0656 25.1304 12.8252 24.8315 11.6509C24.5326 10.4766 23.8511 9.43528 22.8947 8.69128C21.9383 7.94728 20.7613 7.54297 19.5496 7.54217H18.1751C17.845 6.2651 17.2296 5.07949 16.3752 4.07448C15.5209 3.06947 14.4499 2.27122 13.2426 1.73973C12.0354 1.20824 10.7233 0.957351 9.40517 1.00592C8.087 1.05448 6.79699 1.40125 5.63213 2.02013C4.46726 2.63902 3.45786 3.51393 2.67979 4.57908C1.90173 5.64423 1.37526 6.87191 1.13996 8.16981C0.904665 9.46772 0.966661 10.8021 1.32129 12.0726C1.67592 13.3431 2.31396 14.5167 3.18743 15.5051" stroke="#0A1E43" stroke-width="2" stroke-linecap="round" stroke-linejoin="round"/>
<path d="M17.3671 15.1779L13.0039 10.8147L8.64062 15.1779" stroke="#206FFD" stroke-width="2" stroke-linecap="round" stroke-linejoin="round"/>
</svg>
